<svg width="500" height="500" xmlns="http://www.w3.org/2000/svg">

 <g>
  <title>Layer 1</title>
  <path id="svg_1" d="m0,0l24,0l0,24l-24,0l0,-24z" fill="none"/>
  <path fill="#396849" stroke="null" id="svg_2" d="m250.99999,2c-136.896,0 -247.99999,110.87999 -247.99999,247.49998s111.104,247.49998 247.99999,247.49998s247.99999,-110.87999 247.99999,-247.49998s-111.104,-247.49998 -247.99999,-247.49998zm0,74.24999c41.168,0 74.4,33.165 74.4,74.24999s-33.232,74.24999 -74.4,74.24999s-74.4,-33.165 -74.4,-74.24999s33.232,-74.24999 74.4,-74.24999zm0,351.44997a178.55999,178.19999 0 0 1 -148.8,-79.69499c0.744,-49.2525 99.2,-76.22999 148.8,-76.22999c49.352,0 148.056,26.9775 148.8,76.22999a178.55999,178.19999 0 0 1 -148.8,79.69499z"/>
 </g>
</svg>