<svg width="500" height="500" xmlns="http://www.w3.org/2000/svg" version="1.1" fill="#264653">

 <g>
  <title>Layer 1</title>
  <g transform="rotate(-0.0563197 250 250)" stroke="null" id="svg_1">
   <circle stroke="null" id="svg_2" fill="white" r="219.44287" cy="271.94428" cx="250"/>
   <path stroke="null" id="svg_3" d="m499.88361,249.99999c0,-66.20152 -26.3262,-129.69512 -73.18789,-176.50668c-46.86169,-46.81155 -110.42329,-73.10959 -176.69572,-73.10959s-129.83403,26.29803 -176.69572,73.10959c-46.86169,46.81155 -73.18789,110.30515 -73.18789,176.50668s26.3262,129.69512 73.18789,176.50668c46.86169,46.81155 110.42329,73.10959 176.69572,73.10959s129.83403,-26.29803 176.69572,-73.10959c46.86169,-46.81155 73.18789,-110.30515 73.18789,-176.50668zm-403.65814,76.805c0,-10.60348 8.60698,-19.20125 19.22182,-19.20125l19.22182,0l0,-110.98104l-25.17728,12.86659c-2.67743,1.36294 -5.64638,2.09158 -8.64982,2.10871c-8.89871,0.03428 -16.65598,-6.02612 -18.75852,-14.65813c-2.10238,-8.632 1.99942,-17.5811 9.91121,-21.63575l148.19691,-76.805l3.45817,-1.53439l0.00859,0c4.08469,-1.52581 8.59841,-1.52581 12.68288,0l3.45817,1.53439l148.19691,76.805l0.00857,0c7.91192,4.05465 12.01375,13.00375 9.91121,21.63575c-2.10238,8.632 -9.8598,14.69236 -18.75852,14.65813c-3.00344,-0.01714 -5.9726,-0.74575 -8.64982,-2.10871l-25.17728,-12.86659l0,110.98104l19.22182,0c10.61484,0 19.22182,8.59777 19.22182,19.20125s-8.60698,19.20125 -19.22182,19.20125l-269.10543,0c-10.61484,0 -19.22182,-8.59777 -19.22182,-19.20125l0.00042,0z"/>
   <path stroke="null" id="svg_4" d="m173.11273,176.83774l0,130.75723l19.22182,0l0,-115.20751c0,-10.60348 8.60698,-19.20125 19.22182,-19.20125s19.22182,8.59777 19.22182,19.20125l0,115.20751l38.44363,0l0,-115.20751c0,-10.60348 8.60698,-19.20125 19.22182,-19.20125s19.22182,8.59777 19.22182,19.20125l0,115.20751l19.22182,0l0,-130.75723l-76.88727,-39.55019l-76.88727,39.55019z"/>
  </g>
 </g>
</svg>