<?xml version="1.0" encoding="UTF-8"?>
<svg width="200pt" fill= "#264653" height="200pt" version="1.1" viewBox="0 0 700 700" xmlns="http://www.w3.org/2000/svg" xmlns:xlink="http://www.w3.org/1999/xlink">
 
 <g>
  <circle cx="350" cy="220" r="100" fill="white" />
  <path d="m463.75 210c0-30.168-11.984-59.102-33.316-80.434-21.332-21.332-50.266-33.316-80.434-33.316s-59.102 11.984-80.434 33.316c-21.332 21.332-33.316 50.266-33.316 80.434s11.984 59.102 33.316 80.434c21.332 21.332 50.266 33.316 80.434 33.316s59.102-11.984 80.434-33.316c21.332-21.332 33.316-50.266 33.316-80.434zm-183.75 35c0-4.832 3.918-8.75 8.75-8.75h8.75v-50.574l-11.461 5.8633c-1.2188 0.62109-2.5703 0.95313-3.9375 0.96094-4.0508 0.015625-7.582-2.7461-8.5391-6.6797-0.95703-3.9336 0.91016-8.0117 4.5117-9.8594l67.461-35 1.5742-0.69922h0.003906c1.8594-0.69531 3.9141-0.69531 5.7734 0l1.5742 0.69922 67.461 35h0.003906c3.6016 1.8477 5.4688 5.9258 4.5117 9.8594-0.95703 3.9336-4.4883 6.6953-8.5391 6.6797-1.3672-0.007812-2.7188-0.33984-3.9375-0.96094l-11.461-5.8633v50.574h8.75c4.832 0 8.75 3.918 8.75 8.75s-3.918 8.75-8.75 8.75h-122.5c-4.832 0-8.75-3.918-8.75-8.75z"/>
  <path d="m315 176.66v59.586h8.75v-52.5c0-4.832 3.918-8.75 8.75-8.75s8.75 3.918 8.75 8.75v52.5h17.5v-52.5c0-4.832 3.918-8.75 8.75-8.75s8.75 3.918 8.75 8.75v52.5h8.75v-59.586l-35-18.023z"/>
 </g>
</svg>
