<svg xmlns="http://www.w3.org/2000/svg" xmlns:xlink="http://www.w3.org/1999/xlink" xmlns:lucid="lucid" width="1320" height="1355"><g transform="translate(-360 320)" lucid:page-tab-id="0_0"><path d="M580 480c0 44.18-35.82 80-80 80s-80-35.82-80-80 35.82-80 80-80 80 35.82 80 80z" stroke="#3a414a" fill="#fff"/><path d="M380 451.67a6 6 0 0 1 6-6h228a6 6 0 0 1 6 6v56.66a6 6 0 0 1-6 6H386a6 6 0 0 1-6-6z" stroke="#000" stroke-opacity="0" fill="#fff" fill-opacity="0"/><use xlink:href="#a" transform="matrix(1,0,0,1,385,450.6666666666667) translate(79.0462962962963 23.243055555555546)"/><use xlink:href="#b" transform="matrix(1,0,0,1,385,450.6666666666667) translate(72.33333333333337 49.020833333333314)"/><path d="M1076.13 180c0 44.18-35.82 80-80 80s-80-35.82-80-80 35.82-80 80-80 80 35.82 80 80z" stroke="#3a414a" fill="#fff"/><path d="M876.13 151.67a6 6 0 0 1 6-6h228a6 6 0 0 1 6 6v56.66a6 6 0 0 1-6 6h-228a6 6 0 0 1-6-6z" stroke="#000" stroke-opacity="0" fill="#fff" fill-opacity="0"/><use xlink:href="#c" transform="matrix(1,0,0,1,881.1317189392626,150.66666666666669) translate(53.2777777777778 23.243055555555554)"/><use xlink:href="#d" transform="matrix(1,0,0,1,881.1317189392626,150.66666666666669) translate(85.33333333333334 49.02083333333332)"/><path d="M916.13 271a6 6 0 0 1 6-6h228a6 6 0 0 1 6 6v96.28a6 6 0 0 1-6 6h-228a6 6 0 0 1-6-6z" stroke="#000" stroke-opacity="0" fill="#fff" fill-opacity="0"/><use xlink:href="#e" transform="matrix(1,0,0,1,921.1317189392626,270.00000000000006) translate(7.222222222222221 17.77777777777778)"/><use xlink:href="#f" transform="matrix(1,0,0,1,921.1317189392626,270.00000000000006) translate(22.22222222222222 17.77777777777778)"/><use xlink:href="#g" transform="matrix(1,0,0,1,921.1317189392626,270.00000000000006) translate(7.222222222222221 44.44444444444444)"/><use xlink:href="#h" transform="matrix(1,0,0,1,921.1317189392626,270.00000000000006) translate(22.22222222222222 44.44444444444444)"/><use xlink:href="#g" transform="matrix(1,0,0,1,921.1317189392626,270.00000000000006) translate(7.222222222222221 71.11111111111111)"/><use xlink:href="#i" transform="matrix(1,0,0,1,921.1317189392626,270.00000000000006) translate(22.22222222222222 71.11111111111111)"/><use xlink:href="#g" transform="matrix(1,0,0,1,921.1317189392626,270.00000000000006) translate(7.222222222222221 97.77777777777777)"/><use xlink:href="#j" transform="matrix(1,0,0,1,921.1317189392626,270.00000000000006) translate(22.22222222222222 97.77777777777777)"/><path d="M580 180c0 44.18-35.82 80-80 80s-80-35.82-80-80 35.82-80 80-80 80 35.82 80 80z" stroke="#3a414a" fill="#fff"/><path d="M380 151.67a6 6 0 0 1 6-6h228a6 6 0 0 1 6 6v56.66a6 6 0 0 1-6 6H386a6 6 0 0 1-6-6z" stroke="#000" stroke-opacity="0" fill="#fff" fill-opacity="0"/><use xlink:href="#k" transform="matrix(1,0,0,1,385,150.66666666666669) translate(44.45061728395065 23.243055555555554)"/><use xlink:href="#l" transform="matrix(1,0,0,1,385,150.66666666666669) translate(72.33333333333336 49.02083333333332)"/><path d="M420 271a6 6 0 0 1 6-6h228a6 6 0 0 1 6 6v75.02a6 6 0 0 1-6 6H426a6 6 0 0 1-6-6z" stroke="#000" stroke-opacity="0" fill="#fff" fill-opacity="0"/><use xlink:href="#m" transform="matrix(1,0,0,1,425,270) translate(7.222222222222221 20.21527777777778)"/><use xlink:href="#n" transform="matrix(1,0,0,1,425,270) translate(22.22222222222222 20.21527777777778)"/><use xlink:href="#o" transform="matrix(1,0,0,1,425,270) translate(7.222222222222221 46.88194444444444)"/><use xlink:href="#p" transform="matrix(1,0,0,1,425,270) translate(22.22222222222222 46.88194444444444)"/><use xlink:href="#o" transform="matrix(1,0,0,1,425,270) translate(7.222222222222221 73.54861111111111)"/><use xlink:href="#q" transform="matrix(1,0,0,1,425,270) translate(22.22222222222222 73.54861111111111)"/><path d="M1577.82 180c0 44.18-35.82 80-80 80-44.2 0-80-35.82-80-80s35.8-80 80-80c44.18 0 80 35.82 80 80z" stroke="#3a414a" fill="#fff"/><path d="M1377.82 151.67a6 6 0 0 1 6-6h228a6 6 0 0 1 6 6v56.66a6 6 0 0 1-6 6h-228a6 6 0 0 1-6-6z" stroke="#000" stroke-opacity="0" fill="#fff" fill-opacity="0"/><use xlink:href="#r" transform="matrix(1,0,0,1,1382.8158573284704,150.66666666666666) translate(51.91975308641973 23.243055555555557)"/><use xlink:href="#s" transform="matrix(1,0,0,1,1382.8158573284704,150.66666666666666) translate(90.8888888888889 49.02083333333333)"/><path d="M1417.82 271a6 6 0 0 1 6-6h228a6 6 0 0 1 6 6v48a6 6 0 0 1-6 6h-228a6 6 0 0 1-6-6z" stroke="#000" stroke-opacity="0" fill="#fff" fill-opacity="0"/><use xlink:href="#e" transform="matrix(1,0,0,1,1422.8158573284704,270) translate(7.222222222222221 20.90277777777778)"/><use xlink:href="#f" transform="matrix(1,0,0,1,1422.8158573284704,270) translate(22.22222222222222 20.90277777777778)"/><use xlink:href="#g" transform="matrix(1,0,0,1,1422.8158573284704,270) translate(7.222222222222221 47.56944444444444)"/><use xlink:href="#t" transform="matrix(1,0,0,1,1422.8158573284704,270) translate(22.22222222222222 47.56944444444444)"/><path d="M580 835c0 44.18-35.82 80-80 80s-80-35.82-80-80 35.82-80 80-80 80 35.82 80 80z" stroke="#3a414a" fill="#fff"/><path d="M380 806.67a6 6 0 0 1 6-6h228a6 6 0 0 1 6 6v56.66a6 6 0 0 1-6 6H386a6 6 0 0 1-6-6z" stroke="#000" stroke-opacity="0" fill="#fff" fill-opacity="0"/><use xlink:href="#u" transform="matrix(1,0,0,1,385,805.6666666666666) translate(62.783950617283985 23.243055555555546)"/><use xlink:href="#v" transform="matrix(1,0,0,1,385,805.6666666666666) translate(98.33333333333334 49.020833333333314)"/><path d="M420 926a6 6 0 0 1 6-6h228a6 6 0 0 1 6 6v83a6 6 0 0 1-6 6H426a6 6 0 0 1-6-6z" stroke="#000" stroke-opacity="0" fill="#fff" fill-opacity="0"/><use xlink:href="#w" transform="matrix(1,0,0,1,425,925) translate(7.222222222222221 20.43402777777778)"/><use xlink:href="#x" transform="matrix(1,0,0,1,425,925) translate(22.22222222222222 20.43402777777778)"/><use xlink:href="#o" transform="matrix(1,0,0,1,425,925) translate(7.222222222222221 47.10069444444444)"/><use xlink:href="#y" transform="matrix(1,0,0,1,425,925) translate(22.22222222222222 47.10069444444444)"/><use xlink:href="#o" transform="matrix(1,0,0,1,425,925) translate(7.222222222222221 73.76736111111111)"/><use xlink:href="#z" transform="matrix(1,0,0,1,425,925) translate(22.22222222222222 73.76736111111111)"/><path d="M1080 835c0 44.18-35.82 80-80 80s-80-35.82-80-80 35.82-80 80-80 80 35.82 80 80z" stroke="#3a414a" fill="#fff"/><path d="M880 806.67a6 6 0 0 1 6-6h228a6 6 0 0 1 6 6v56.66a6 6 0 0 1-6 6H886a6 6 0 0 1-6-6z" stroke="#000" stroke-opacity="0" fill="#fff" fill-opacity="0"/><use xlink:href="#A" transform="matrix(1,0,0,1,885,805.6666666666666) translate(72.29012345679014 23.243055555555554)"/><use xlink:href="#B" transform="matrix(1,0,0,1,885,805.6666666666666) translate(103.8888888888889 49.02083333333332)"/><path d="M920 926a6 6 0 0 1 6-6h228a6 6 0 0 1 6 6v37.63a6 6 0 0 1-6 6H926a6 6 0 0 1-6-6z" stroke="#000" stroke-opacity="0" fill="#fff" fill-opacity="0"/><use xlink:href="#C" transform="matrix(1,0,0,1,925,925.0000000000001) translate(7.222222222222221 17.77777777777778)"/><use xlink:href="#D" transform="matrix(1,0,0,1,925,925.0000000000001) translate(22.22222222222222 17.77777777777778)"/><use xlink:href="#o" transform="matrix(1,0,0,1,925,925.0000000000001) translate(7.222222222222221 44.44444444444444)"/><use xlink:href="#E" transform="matrix(1,0,0,1,925,925.0000000000001) translate(22.22222222222222 44.44444444444444)"/><path d="M1480 835c0 44.18-35.82 80-80 80s-80-35.82-80-80 35.82-80 80-80 80 35.82 80 80z" stroke="#3a414a" fill="#fff"/><path d="M1280 806.67a6 6 0 0 1 6-6h228a6 6 0 0 1 6 6v56.66a6 6 0 0 1-6 6h-228a6 6 0 0 1-6-6z" stroke="#000" stroke-opacity="0" fill="#fff" fill-opacity="0"/><use xlink:href="#F" transform="matrix(1,0,0,1,1285,805.6666666666666) translate(76.3641975308642 23.243055555555554)"/><use xlink:href="#G" transform="matrix(1,0,0,1,1285,805.6666666666666) translate(109.44444444444444 49.02083333333332)"/><path d="M1320 926a6 6 0 0 1 6-6h228a6 6 0 0 1 6 6v37.63a6 6 0 0 1-6 6h-228a6 6 0 0 1-6-6z" stroke="#000" stroke-opacity="0" fill="#fff" fill-opacity="0"/><use xlink:href="#e" transform="matrix(1,0,0,1,1325,925.0000000000002) translate(7.222222222222221 17.77777777777778)"/><use xlink:href="#f" transform="matrix(1,0,0,1,1325,925.0000000000002) translate(22.22222222222222 17.77777777777778)"/><use xlink:href="#g" transform="matrix(1,0,0,1,1325,925.0000000000002) translate(7.222222222222221 44.44444444444444)"/><use xlink:href="#H" transform="matrix(1,0,0,1,1325,925.0000000000002) translate(22.22222222222222 44.44444444444444)"/><path d="M1076.13-220c0 44.18-35.82 80-80 80s-80-35.82-80-80 35.82-80 80-80 80 35.82 80 80z" stroke="#3a414a" fill="#fff"/><path d="M876.13-248.33a6 6 0 0 1 6-6h228a6 6 0 0 1 6 6v56.66a6 6 0 0 1-6 6h-228a6 6 0 0 1-6-6z" stroke="#000" stroke-opacity="0" fill="#fff" fill-opacity="0"/><use xlink:href="#I" transform="matrix(1,0,0,1,881.1317189392626,-249.3333333333332) translate(89.2314814814815 23.243055555555554)"/><use xlink:href="#J" transform="matrix(1,0,0,1,881.1317189392626,-249.3333333333332) translate(109.44444444444444 49.02083333333332)"/><path d="M916.13-134a6 6 0 0 1 6-6h228a6 6 0 0 1 6 6v37.64a6 6 0 0 1-6 6h-228a6 6 0 0 1-6-6z" stroke="#000" stroke-opacity="0" fill="#fff" fill-opacity="0"/><use xlink:href="#e" transform="matrix(1,0,0,1,921.1317189392626,-135) translate(7.222222222222221 17.77777777777778)"/><use xlink:href="#f" transform="matrix(1,0,0,1,921.1317189392626,-135) translate(22.22222222222222 17.77777777777778)"/><use xlink:href="#g" transform="matrix(1,0,0,1,921.1317189392626,-135) translate(7.222222222222221 44.44444444444444)"/><use xlink:href="#K" transform="matrix(1,0,0,1,921.1317189392626,-135) translate(22.22222222222222 44.44444444444444)"/><path d="M1579.5-220c0 44.18-35.82 80-80 80s-80-35.82-80-80 35.82-80 80-80 80 35.82 80 80z" stroke="#3a414a" fill="#fff"/><path d="M1379.5-248.33a6 6 0 0 1 6-6h228a6 6 0 0 1 6 6v56.66a6 6 0 0 1-6 6h-228a6 6 0 0 1-6-6z" stroke="#000" stroke-opacity="0" fill="#fff" fill-opacity="0"/><use xlink:href="#L" transform="matrix(1,0,0,1,1384.4999957176783,-249.33333333333331) translate(67.5030864197531 23.243055555555554)"/><use xlink:href="#M" transform="matrix(1,0,0,1,1384.4999957176783,-249.33333333333331) translate(103.8888888888889 49.02083333333332)"/><path d="M1420-129a6 6 0 0 1 6-6h228a6 6 0 0 1 6 6v37.64a6 6 0 0 1-6 6h-228a6 6 0 0 1-6-6z" stroke="#000" stroke-opacity="0" fill="#fff" fill-opacity="0"/><use xlink:href="#e" transform="matrix(1,0,0,1,1425,-129.9999999999999) translate(7.222222222222221 17.77777777777778)"/><use xlink:href="#f" transform="matrix(1,0,0,1,1425,-129.9999999999999) translate(22.22222222222222 17.77777777777778)"/><use xlink:href="#g" transform="matrix(1,0,0,1,1425,-129.9999999999999) translate(7.222222222222221 44.44444444444444)"/><use xlink:href="#K" transform="matrix(1,0,0,1,1425,-129.9999999999999) translate(22.22222222222222 44.44444444444444)"/><path d="M1080 480c0 44.18-35.82 80-80 80s-80-35.82-80-80 35.82-80 80-80 80 35.82 80 80z" stroke="#3a414a" fill="#fff"/><path d="M880 451.67a6 6 0 0 1 6-6h228a6 6 0 0 1 6 6v56.66a6 6 0 0 1-6 6H886a6 6 0 0 1-6-6z" stroke="#000" stroke-opacity="0" fill="#fff" fill-opacity="0"/><use xlink:href="#a" transform="matrix(1,0,0,1,885,450.6666666666667) translate(79.0462962962963 23.243055555555546)"/><use xlink:href="#b" transform="matrix(1,0,0,1,885,450.6666666666667) translate(72.33333333333337 49.020833333333314)"/><path d="M920 566a6 6 0 0 1 6-6h228a6 6 0 0 1 6 6v158a6 6 0 0 1-6 6H926a6 6 0 0 1-6-6z" stroke="#000" stroke-opacity="0" fill="#fff" fill-opacity="0"/><use xlink:href="#e" transform="matrix(1,0,0,1,925,565) translate(7.222222222222221 22.77777777777778)"/><use xlink:href="#N" transform="matrix(1,0,0,1,925,565) translate(22.22222222222222 22.77777777777778)"/><use xlink:href="#o" transform="matrix(1,0,0,1,925,565) translate(7.222222222222221 49.44444444444444)"/><use xlink:href="#O" transform="matrix(1,0,0,1,925,565) translate(22.22222222222222 49.44444444444444)"/><use xlink:href="#w" transform="matrix(1,0,0,1,925,565) translate(7.222222222222221 76.11111111111111)"/><use xlink:href="#P" transform="matrix(1,0,0,1,925,565) translate(22.22222222222222 76.11111111111111)"/><use xlink:href="#C" transform="matrix(1,0,0,1,925,565) translate(7.222222222222221 102.77777777777777)"/><use xlink:href="#Q" transform="matrix(1,0,0,1,925,565) translate(22.22222222222222 102.77777777777777)"/><use xlink:href="#o" transform="matrix(1,0,0,1,925,565) translate(7.222222222222221 129.44444444444446)"/><use xlink:href="#R" transform="matrix(1,0,0,1,925,565) translate(22.22222222222222 129.44444444444446)"/><use xlink:href="#o" transform="matrix(1,0,0,1,925,565) translate(7.222222222222221 156.11111111111111)"/><use xlink:href="#S" transform="matrix(1,0,0,1,925,565) translate(22.22222222222222 156.11111111111111)"/><path d="M674.94 481.5H582v-3h92.94zm243.06 0h-92.94v-3H918z" stroke="#3a414a" stroke-width=".05" fill="#3a414a"/><path d="M582.04 481.5h-1.6l.06-1.5v-.7l-.03-.8h1.57z" fill="#3a414a"/><path d="M582.06 481.52h-1.63l.05-1.5v-.7l-.04-.84h1.62zm-1.57-3l.02.8v.7l-.04 1.46H582v-2.96z" stroke="#3a414a" stroke-width=".05" fill="#3a414a"/><path d="M919.5 480v.7l.03.8h-1.57v-3h1.6z" fill="#3a414a"/><path d="M919.52 480v.7l.04.82h-1.62v-3.04h1.63zM918 478.5v2.96h1.5l-.02-.8v-.7l.04-1.46z" stroke="#3a414a" stroke-width=".05" fill="#3a414a"/><use xlink:href="#T" transform="matrix(1,0,0,1,674.9382716049383,466.6666666666667) translate(0 17.77777777777778)"/><path d="M676.13 506a6 6 0 0 1 6-6h228a6 6 0 0 1 6 6v108a6 6 0 0 1-6 6h-228a6 6 0 0 1-6-6z" stroke="#000" stroke-opacity="0" fill="#fff" fill-opacity="0"/><use xlink:href="#m" transform="matrix(1,0,0,1,681.1317189392626,505) translate(7.222222222222221 31.52777777777778)"/><use xlink:href="#U" transform="matrix(1,0,0,1,681.1317189392626,505) translate(22.22222222222222 31.52777777777778)"/><use xlink:href="#o" transform="matrix(1,0,0,1,681.1317189392626,505) translate(7.222222222222221 58.19444444444445)"/><use xlink:href="#V" transform="matrix(1,0,0,1,681.1317189392626,505) translate(22.22222222222222 58.19444444444445)"/><use xlink:href="#o" transform="matrix(1,0,0,1,681.1317189392626,505) translate(7.222222222222221 84.86111111111111)"/><use xlink:href="#W" transform="matrix(1,0,0,1,681.1317189392626,505) translate(22.22222222222222 84.86111111111111)"/><path d="M694 836.5H582v-3h112zm204.88 0h-92.9v-3h92.9z" stroke="#3a414a" stroke-width=".05" fill="#3a414a"/><path d="M582.04 836.5h-1.6l.06-1.5v-.7l-.03-.8h1.57z" fill="#3a414a"/><path d="M582.06 836.52h-1.63l.05-1.5v-.7l-.04-.85h1.62zm-1.57-3l.02.8v.7l-.04 1.46H582v-2.96z" stroke="#3a414a" stroke-width=".05" fill="#3a414a"/><path d="M914.65 835l-14.27 4.63v-9.26z" fill="#3a414a"/><path d="M919.5 835l-20.62 6.7v-13.4zm-17.62 2.57l7.9-2.57-7.9-2.57z" stroke="#3a414a" stroke-width=".05" fill="#3a414a"/><g><use xlink:href="#X" transform="matrix(1,0,0,1,694.0123456790124,821.6666666666666) translate(0 17.77777777777778)"/></g><path d="M501.5 733.88h-3v-63.05h3zm0-89.7h-3V562h3z" stroke="#3a414a" stroke-width=".05" fill="#3a414a"/><path d="M500 560.5h.7l.8-.03v1.57h-3v-1.6z" fill="#3a414a"/><path d="M500 560.48h.7l.82-.04v1.62h-3.04v-1.63zM498.5 562h2.96v-1.5l-.8.02h-.7l-1.46-.04z" stroke="#3a414a" stroke-width=".05" fill="#3a414a"/><path d="M500 749.64l-4.63-14.26h9.26z" fill="#3a414a"/><path d="M500 754.5l-6.7-20.62h13.4zm-2.57-17.62l2.57 7.9 2.57-7.9z" stroke="#3a414a" stroke-width=".05" fill="#3a414a"/><g><use xlink:href="#Y" transform="matrix(1,0,0,1,445.27777777777777,644.1666666666666) translate(0 17.777777777777775)"/></g><path d="M698.8 181.5H582v-3h116.8zm196.2 0h-97.67v-3H895z" stroke="#3a414a" stroke-width=".05" fill="#3a414a"/><path d="M582.04 181.5h-1.6l.06-1.5v-.7l-.03-.8h1.57z" fill="#3a414a"/><path d="M582.06 181.53h-1.63l.05-1.52v-.7l-.04-.83h1.62zm-1.57-3l.02.78v.7l-.04 1.47H582v-2.94z" stroke="#3a414a" stroke-width=".05" fill="#3a414a"/><path d="M910.78 180l-14.27 4.63v-9.26z" fill="#3a414a"/><path d="M915.63 180L895 186.7v-13.4zM898 182.57l7.92-2.57-7.9-2.57z" stroke="#3a414a" stroke-width=".05" fill="#3a414a"/><g><use xlink:href="#Z" transform="matrix(1,0,0,1,698.806600210372,166.66666666666666) translate(0 17.77777777777778)"/></g><path d="M1161.73 181.5h-83.6v-3h83.6zm234.97 0h-64.48v-3h64.48z" stroke="#3a414a" stroke-width=".05" fill="#3a414a"/><path d="M1078.17 181.5h-1.6l.06-1.5v-.7l-.03-.8h1.57z" fill="#3a414a"/><path d="M1078.2 181.53h-1.64l.05-1.52v-.7l-.03-.83h1.63zm-1.58-3l.03.78v.7l-.04 1.47h1.55v-2.94z" stroke="#3a414a" stroke-width=".05" fill="#3a414a"/><path d="M1412.46 180l-14.26 4.63v-9.26z" fill="#3a414a"/><path d="M1417.32 180l-20.62 6.7v-13.4zm-17.62 2.57l7.9-2.57-7.9-2.57z" stroke="#3a414a" stroke-width=".05" fill="#3a414a"/><g><use xlink:href="#aa" transform="matrix(1,0,0,1,1161.7268745536196,166.66666666666666) translate(0 17.77777777777778)"/></g><path d="M997.63 98h-3V-6.67h3zm0-131.33h-3v-85.55h3z" stroke="#3a414a" stroke-width=".05" fill="#3a414a"/><path d="M997.63 99.55l-1.5-.05h-.68l-.82.03v-1.57h3z" fill="#3a414a"/><path d="M997.66 99.57l-1.52-.04h-.7l-.83.03v-1.62h3.06zm-3-1.58v1.5l.78-.02h.7l1.47.04V98z" stroke="#3a414a" stroke-width=".05" fill="#3a414a"/><path d="M1000.77-120.38h-9.27l4.63-14.27z" fill="#3a414a"/><path d="M1002.83-118.88h-13.4l6.7-20.62zm-9.27-3h5.14l-2.57-7.9z" stroke="#3a414a" stroke-width=".05" fill="#3a414a"/><g><use xlink:href="#ab" transform="matrix(1,0,0,1,917.5823362232131,-33.33333333333328) translate(0 17.77777777777778)"/></g><path d="M1148.95 836.5H1082v-3h66.95zm149.93 0h-47.83v-3h47.83z" stroke="#3a414a" stroke-width=".05" fill="#3a414a"/><path d="M1082.04 836.5h-1.6l.06-1.5v-.7l-.04-.8h1.58z" fill="#3a414a"/><path d="M1082.06 836.52h-1.63l.04-1.5v-.7l-.03-.85h1.62zm-1.57-3l.02.8v.7l-.04 1.46h1.53v-2.96z" stroke="#3a414a" stroke-width=".05" fill="#3a414a"/><path d="M1314.65 835l-14.27 4.63v-9.26z" fill="#3a414a"/><path d="M1319.5 835l-20.62 6.7v-13.4zm-17.62 2.57l7.9-2.57-7.9-2.57z" stroke="#3a414a" stroke-width=".05" fill="#3a414a"/><g><use xlink:href="#ac" transform="matrix(1,0,0,1,1148.9506172839506,821.6666666666666) translate(0 17.77777777777778)"/></g><path d="M1186.24-218.5h-89v-3h89zm231.26 0h-108.1v-3h108.1z" stroke="#3a414a" stroke-width=".05" fill="#3a414a"/><path d="M1095.75-215.37L1081.5-220l14.25-4.63z" fill="#3a414a"/><path d="M1097.25-213.3l-20.62-6.7 20.62-6.7zm-10.9-6.7l7.9 2.57v-5.14z" stroke="#3a414a" stroke-width=".05" fill="#3a414a"/><path d="M1419-220v.7l.04.8h-1.58v-3h1.6z" fill="#3a414a"/><path d="M1419.03-220v.7l.03.83h-1.62v-3.06h1.63zm-1.54-1.47v2.94h1.5l-.02-.78v-.7l.04-1.47z" stroke="#3a414a" stroke-width=".05" fill="#3a414a"/><g><use xlink:href="#ad" transform="matrix(1,0,0,1,1186.24178325462,-233.33333327925828) translate(0 17.77777777777778)"/></g><path d="M1160.38-214a6 6 0 0 1 6-6h162.87a6 6 0 0 1 6 6v48a6 6 0 0 1-6 6h-162.87a6 6 0 0 1-6-6z" stroke="#000" stroke-opacity="0" fill="#fff" fill-opacity="0"/><g><use xlink:href="#ae" transform="matrix(1,0,0,1,1165.3842439474543,-215) translate(71.38888888888889 28.5)"/></g><path d="M1020-34a6 6 0 0 1 6-6h168a6 6 0 0 1 6 6v31.38a6 6 0 0 1-6 6h-168a6 6 0 0 1-6-6z" stroke="#000" stroke-opacity="0" fill="#fff" fill-opacity="0"/><g><use xlink:href="#af" transform="matrix(1,0,0,1,1025,-35) translate(60.8888888888889 20.25)"/></g><path d="M660.63 186a6 6 0 0 1 6-6H829.5a6 6 0 0 1 6 6v56.67a6 6 0 0 1-6 6H666.63a6 6 0 0 1-6-6z" stroke="#000" stroke-opacity="0" fill="#fff" fill-opacity="0"/><g><use xlink:href="#ag" transform="matrix(1,0,0,1,665.6342460886152,185) translate(39.83333333333334 34.4375)"/></g><path d="M1160.38 186a6 6 0 0 1 6-6h162.87a6 6 0 0 1 6 6v48a6 6 0 0 1-6 6h-162.87a6 6 0 0 1-6-6z" stroke="#000" stroke-opacity="0" fill="#fff" fill-opacity="0"/><g><use xlink:href="#ah" transform="matrix(1,0,0,1,1165.3842439474543,185) translate(52.83333333333334 28.5)"/></g><path d="M660 486a6 6 0 0 1 6-6h162.86a6 6 0 0 1 6 6v48a6 6 0 0 1-6 6H666a6 6 0 0 1-6-6z" stroke="#000" stroke-opacity="0" fill="#fff" fill-opacity="0"/><g><use xlink:href="#ai" transform="matrix(1,0,0,1,665,485) translate(34.27777777777778 28.5)"/></g><path d="M500 641.8a6 6 0 0 1 6-6h162.86a6 6 0 0 1 6 6v31.4a6 6 0 0 1-6 6H506a6 6 0 0 1-6-6z" stroke="#000" stroke-opacity="0" fill="#fff" fill-opacity="0"/><g><use xlink:href="#aj" transform="matrix(1,0,0,1,505,640.8090163659612) translate(51.18888888888889 21.31666666666667)"/><use xlink:href="#ak" transform="matrix(1,0,0,1,505,640.8090163659612) translate(57.114814814814814 21.31666666666667)"/></g><path d="M662.57 846a6 6 0 0 1 6-6h162.86a6 6 0 0 1 6 6v31.38a6 6 0 0 1-6 6H668.57a6 6 0 0 1-6-6z" stroke="#000" stroke-opacity="0" fill="#fff" fill-opacity="0"/><g><use xlink:href="#al" transform="matrix(1,0,0,1,667.5683866189839,845) translate(65.83333333333334 20.25)"/></g><path d="M1112.57 846a6 6 0 0 1 6-6h162.86a6 6 0 0 1 6 6v31.38a6 6 0 0 1-6 6h-162.86a6 6 0 0 1-6-6z" stroke="#000" stroke-opacity="0" fill="#fff" fill-opacity="0"/><g><use xlink:href="#am" transform="matrix(1,0,0,1,1117.5683866189838,845) translate(66.58333333333334 20.25)"/></g><defs><path fill="#3a414a" d="M205 0l-28-72H64L36 0H1l101-248h38L239 0h-34zm-38-99l-47-123c-12 45-31 82-46 123h93" id="an"/><path fill="#3a414a" d="M84 4C-5 8 30-112 23-190h32v120c0 31 7 50 39 49 72-2 45-101 50-169h31l1 190h-30c-1-10 1-25-2-33-11 22-28 36-60 37" id="ao"/><path fill="#3a414a" d="M59-47c-2 24 18 29 38 22v24C64 9 27 4 27-40v-127H5v-23h24l9-43h21v43h35v23H59v120" id="ap"/><path fill="#3a414a" d="M106-169C34-169 62-67 57 0H25v-261h32l-1 103c12-21 28-36 61-36 89 0 53 116 60 194h-32v-121c2-32-8-49-39-48" id="aq"/><path fill="#3a414a" d="M100-194c62-1 85 37 85 99 1 63-27 99-86 99S16-35 15-95c0-66 28-99 85-99zM99-20c44 1 53-31 53-75 0-43-8-75-51-75s-53 32-53 75 10 74 51 75" id="ar"/><path fill="#3a414a" d="M114-163C36-179 61-72 57 0H25l-1-190h30c1 12-1 29 2 39 6-27 23-49 58-41v29" id="as"/><g id="a"><use transform="matrix(0.0679012345679012,0,0,0.0679012345679012,0,0)" xlink:href="#an"/><use transform="matrix(0.0679012345679012,0,0,0.0679012345679012,16.29629629629629,0)" xlink:href="#ao"/><use transform="matrix(0.0679012345679012,0,0,0.0679012345679012,29.87654320987653,0)" xlink:href="#ap"/><use transform="matrix(0.0679012345679012,0,0,0.0679012345679012,36.66666666666665,0)" xlink:href="#aq"/><use transform="matrix(0.0679012345679012,0,0,0.0679012345679012,50.24691358024689,0)" xlink:href="#ar"/><use transform="matrix(0.0679012345679012,0,0,0.0679012345679012,63.82716049382713,0)" xlink:href="#as"/></g><path fill="#3a414a" d="M126-127c33 6 58 20 58 59 0 88-139 92-164 29-3-8-5-16-6-25l32-3c6 27 21 44 54 44 32 0 52-15 52-46 0-38-36-46-79-43v-28c39 1 72-4 72-42 0-27-17-43-46-43-28 0-47 15-49 41l-32-3c6-42 35-63 81-64 48-1 79 21 79 65 0 36-21 52-52 59" id="at"/><path fill="#3a414a" d="M47-170H22l-4-78h33" id="au"/><path fill="#3a414a" d="M27 0v-27h64v-190l-56 39v-29l58-41h29v221h61V0H27" id="av"/><path fill="#3a414a" d="M110-160c48 1 74 30 74 79 0 53-28 85-80 85-65 0-83-55-86-122-5-90 50-162 133-122 14 7 22 21 27 39l-31 6c-5-40-67-38-82-6-9 19-15 44-15 74 11-20 30-34 60-33zm-7 138c34 0 49-23 49-58s-16-56-50-56c-29 0-50 16-49 49 1 36 15 65 50 65" id="aw"/><path fill="#3a414a" d="M134-131c28 9 52 24 51 62-1 50-34 73-85 73S17-19 16-69c0-36 21-54 49-61-75-25-45-126 34-121 46 3 78 18 79 63 0 33-17 51-44 57zm-34-11c31 1 46-15 46-44 0-28-17-43-47-42-29 0-46 13-45 42 1 28 16 44 46 44zm1 122c35 0 51-18 51-52 0-30-18-46-53-46-33 0-51 17-51 47 0 34 19 51 53 51" id="ax"/><g id="b"><use transform="matrix(0.05555555555555552,0,0,0.05555555555555552,0,0)" xlink:href="#at"/><use transform="matrix(0.05555555555555552,0,0,0.05555555555555552,11.111111111111104,0)" xlink:href="#au"/><use transform="matrix(0.05555555555555552,0,0,0.05555555555555552,14.888888888888879,0)" xlink:href="#av"/><use transform="matrix(0.05555555555555552,0,0,0.05555555555555552,25.999999999999982,0)" xlink:href="#at"/><use transform="matrix(0.05555555555555552,0,0,0.05555555555555552,37.111111111111086,0)" xlink:href="#aw"/><use transform="matrix(0.05555555555555552,0,0,0.05555555555555552,48.222222222222186,0)" xlink:href="#au"/><use transform="matrix(0.05555555555555552,0,0,0.05555555555555552,51.99999999999996,0)" xlink:href="#av"/><use transform="matrix(0.05555555555555552,0,0,0.05555555555555552,63.11111111111106,0)" xlink:href="#at"/><use transform="matrix(0.05555555555555552,0,0,0.05555555555555552,74.22222222222216,0)" xlink:href="#ax"/></g><path fill="#3a414a" d="M30-248c87 1 191-15 191 75 0 78-77 80-158 76V0H30v-248zm33 125c57 0 124 11 124-50 0-59-68-47-124-48v98" id="ay"/><path fill="#3a414a" d="M96-169c-40 0-48 33-48 73s9 75 48 75c24 0 41-14 43-38l32 2c-6 37-31 61-74 61-59 0-76-41-82-99-10-93 101-131 147-64 4 7 5 14 7 22l-32 3c-4-21-16-35-41-35" id="az"/><path fill="#3a414a" d="M100-194c63 0 86 42 84 106H49c0 40 14 67 53 68 26 1 43-12 49-29l28 8c-11 28-37 45-77 45C44 4 14-33 15-96c1-61 26-98 85-98zm52 81c6-60-76-77-97-28-3 7-6 17-6 28h103" id="aA"/><path fill="#3a414a" d="M85-194c31 0 48 13 60 33l-1-100h32l1 261h-30c-2-10 0-23-3-31C134-8 116 4 85 4 32 4 16-35 15-94c0-66 23-100 70-100zm9 24c-40 0-46 34-46 75 0 40 6 74 45 74 42 0 51-32 51-76 0-42-9-74-50-73" id="aB"/><path fill="#3a414a" d="M24-231v-30h32v30H24zM24 0v-190h32V0H24" id="aC"/><path fill="#3a414a" d="M117-194c89-4 53 116 60 194h-32v-121c0-31-8-49-39-48C34-167 62-67 57 0H25l-1-190h30c1 10-1 24 2 32 11-22 29-35 61-36" id="aD"/><path fill="#3a414a" d="M177-190C167-65 218 103 67 71c-23-6-38-20-44-43l32-5c15 47 100 32 89-28v-30C133-14 115 1 83 1 29 1 15-40 15-95c0-56 16-97 71-98 29-1 48 16 59 35 1-10 0-23 2-32h30zM94-22c36 0 50-32 50-73 0-42-14-75-50-75-39 0-46 34-46 75s6 73 46 73" id="aE"/><g id="c"><use transform="matrix(0.06790123456790122,0,0,0.06790123456790122,0,0)" xlink:href="#ay"/><use transform="matrix(0.06790123456790122,0,0,0.06790123456790122,16.29629629629629,0)" xlink:href="#as"/><use transform="matrix(0.06790123456790122,0,0,0.06790123456790122,24.376543209876537,0)" xlink:href="#ar"/><use transform="matrix(0.06790123456790122,0,0,0.06790123456790122,37.95679012345679,0)" xlink:href="#az"/><use transform="matrix(0.06790123456790122,0,0,0.06790123456790122,50.179012345679006,0)" xlink:href="#aA"/><use transform="matrix(0.06790123456790122,0,0,0.06790123456790122,63.75925925925925,0)" xlink:href="#aA"/><use transform="matrix(0.06790123456790122,0,0,0.06790123456790122,77.33950617283949,0)" xlink:href="#aB"/><use transform="matrix(0.06790123456790122,0,0,0.06790123456790122,90.91975308641973,0)" xlink:href="#aC"/><use transform="matrix(0.06790123456790122,0,0,0.06790123456790122,96.28395061728392,0)" xlink:href="#aD"/><use transform="matrix(0.06790123456790122,0,0,0.06790123456790122,109.86419753086416,0)" xlink:href="#aE"/></g><path fill="#3a414a" d="M155-56V0h-30v-56H8v-25l114-167h33v167h35v25h-35zm-30-156c-27 46-58 90-88 131h88v-131" id="aF"/><path fill="#3a414a" d="M54-142c48-35 137-8 131 61C196 18 31 33 14-55l32-4c7 23 22 37 52 37 35-1 51-22 54-58 4-55-73-65-99-34H22l8-134h141v27H59" id="aG"/><path fill="#3a414a" d="M101-251c68 0 85 55 85 127S166 4 100 4C33 4 14-52 14-124c0-73 17-127 87-127zm-1 229c47 0 54-49 54-102s-4-102-53-102c-51 0-55 48-55 102 0 53 5 102 54 102" id="aH"/><path fill="#3a414a" d="M64 0c3-98 48-159 88-221H18v-27h164v26C143-157 98-101 97 0H64" id="aI"/><g id="d"><use transform="matrix(0.055555555555555525,0,0,0.055555555555555525,0,0)" xlink:href="#aF"/><use transform="matrix(0.055555555555555525,0,0,0.055555555555555525,11.111111111111105,0)" xlink:href="#av"/><use transform="matrix(0.055555555555555525,0,0,0.055555555555555525,22.22222222222221,0)" xlink:href="#au"/><use transform="matrix(0.055555555555555525,0,0,0.055555555555555525,25.999999999999986,0)" xlink:href="#aG"/><use transform="matrix(0.055555555555555525,0,0,0.055555555555555525,37.11111111111109,0)" xlink:href="#aH"/><use transform="matrix(0.055555555555555525,0,0,0.055555555555555525,48.2222222222222,0)" xlink:href="#aI"/></g><path fill="#3a414a" d="M63-170c30 0 51 21 51 51 0 31-20 52-51 52s-52-21-52-52 21-51 52-51" id="aJ"/><use transform="matrix(0.06172839506172839,0,0,0.06172839506172839,0,0)" xlink:href="#aJ" id="e"/><path fill="#3a414a" d="M25-224v-37h50v37H25zM25 0v-190h50V0H25" id="aK"/><path fill="#3a414a" d="M88-194c31-1 46 15 58 34l-1-101h50l1 261h-48c-2-10 0-23-3-31C134-8 116 4 84 4 32 4 16-41 15-95c0-56 19-97 73-99zm17 164c33 0 40-30 41-66 1-37-9-64-41-64s-38 30-39 65c0 43 13 65 39 65" id="aL"/><g id="f"><use transform="matrix(0.06172839506172839,0,0,0.06172839506172839,0,0)" xlink:href="#aK"/><use transform="matrix(0.06172839506172839,0,0,0.06172839506172839,6.172839506172839,0)" xlink:href="#aL"/></g><path fill="#3a414a" d="M62-168c30 0 50 19 50 48S92-70 62-70c-29 0-48-21-48-50s20-48 48-48" id="aM"/><use transform="matrix(0.06172839506172839,0,0,0.06172839506172839,0,0)" xlink:href="#aM" id="g"/><path fill="#3a414a" d="M24 0v-261h32V0H24" id="aN"/><g id="h"><use transform="matrix(0.06172839506172839,0,0,0.06172839506172839,0,0)" xlink:href="#ap"/><use transform="matrix(0.06172839506172839,0,0,0.06172839506172839,6.172839506172839,0)" xlink:href="#aC"/><use transform="matrix(0.06172839506172839,0,0,0.06172839506172839,11.049382716049383,0)" xlink:href="#ap"/><use transform="matrix(0.06172839506172839,0,0,0.06172839506172839,17.22222222222222,0)" xlink:href="#aN"/><use transform="matrix(0.06172839506172839,0,0,0.06172839506172839,22.098765432098766,0)" xlink:href="#aA"/></g><path fill="#3a414a" d="M101-234c-31-9-42 10-38 44h38v23H63V0H32v-167H5v-23h27c-7-52 17-82 69-68v24" id="aO"/><g id="i"><use transform="matrix(0.06172839506172839,0,0,0.06172839506172839,0,0)" xlink:href="#az"/><use transform="matrix(0.06172839506172839,0,0,0.06172839506172839,11.11111111111111,0)" xlink:href="#ar"/><use transform="matrix(0.06172839506172839,0,0,0.06172839506172839,23.45679012345679,0)" xlink:href="#aD"/><use transform="matrix(0.06172839506172839,0,0,0.06172839506172839,35.80246913580247,0)" xlink:href="#aO"/></g><path fill="#3a414a" d="M179-190L93 31C79 59 56 82 12 73V49c39 6 53-20 64-50L1-190h34L92-34l54-156h33" id="aP"/><path fill="#3a414a" d="M141-36C126-15 110 5 73 4 37 3 15-17 15-53c-1-64 63-63 125-63 3-35-9-54-41-54-24 1-41 7-42 31l-33-3c5-37 33-52 76-52 45 0 72 20 72 64v82c-1 20 7 32 28 27v20c-31 9-61-2-59-35zM48-53c0 20 12 33 32 33 41-3 63-29 60-74-43 2-92-5-92 41" id="aQ"/><g id="j"><use transform="matrix(0.06172839506172839,0,0,0.06172839506172839,0,0)" xlink:href="#aP"/><use transform="matrix(0.06172839506172839,0,0,0.06172839506172839,11.11111111111111,0)" xlink:href="#aA"/><use transform="matrix(0.06172839506172839,0,0,0.06172839506172839,23.45679012345679,0)" xlink:href="#aQ"/><use transform="matrix(0.06172839506172839,0,0,0.06172839506172839,35.80246913580247,0)" xlink:href="#as"/></g><path fill="#3a414a" d="M33 0v-248h34V0H33" id="aR"/><path fill="#3a414a" d="M115-194c55 1 70 41 70 98S169 2 115 4C84 4 66-9 55-30l1 105H24l-1-265h31l2 30c10-21 28-34 59-34zm-8 174c40 0 45-34 45-75s-6-73-45-74c-42 0-51 32-51 76 0 43 10 73 51 73" id="aS"/><g id="k"><use transform="matrix(0.06790123456790122,0,0,0.06790123456790122,0,0)" xlink:href="#aR"/><use transform="matrix(0.06790123456790122,0,0,0.06790123456790122,6.790123456790122,0)" xlink:href="#aD"/><use transform="matrix(0.06790123456790122,0,0,0.06790123456790122,20.370370370370367,0)" xlink:href="#aS"/><use transform="matrix(0.06790123456790122,0,0,0.06790123456790122,33.950617283950606,0)" xlink:href="#as"/><use transform="matrix(0.06790123456790122,0,0,0.06790123456790122,42.03086419753085,0)" xlink:href="#ar"/><use transform="matrix(0.06790123456790122,0,0,0.06790123456790122,55.6111111111111,0)" xlink:href="#az"/><use transform="matrix(0.06790123456790122,0,0,0.06790123456790122,67.83333333333331,0)" xlink:href="#aA"/><use transform="matrix(0.06790123456790122,0,0,0.06790123456790122,81.41358024691355,0)" xlink:href="#aA"/><use transform="matrix(0.06790123456790122,0,0,0.06790123456790122,94.9938271604938,0)" xlink:href="#aB"/><use transform="matrix(0.06790123456790122,0,0,0.06790123456790122,108.57407407407403,0)" xlink:href="#aC"/><use transform="matrix(0.06790123456790122,0,0,0.06790123456790122,113.93827160493822,0)" xlink:href="#aD"/><use transform="matrix(0.06790123456790122,0,0,0.06790123456790122,127.51851851851845,0)" xlink:href="#aE"/></g><path fill="#3a414a" d="M101-251c82-7 93 87 43 132L82-64C71-53 59-42 53-27h129V0H18c2-99 128-94 128-182 0-28-16-43-45-43s-46 15-49 41l-32-3c6-41 34-60 81-64" id="aT"/><path fill="#3a414a" d="M99-251c64 0 84 50 84 122C183-37 130 33 47-8c-14-7-20-23-25-40l30-5c6 39 69 39 84 7 9-19 16-44 16-74-10 22-31 35-62 35-49 0-73-33-73-83 0-54 28-83 82-83zm-1 141c31-1 51-18 51-49 0-36-14-67-51-67-34 0-49 23-49 58 0 34 15 58 49 58" id="aU"/><g id="l"><use transform="matrix(0.055555555555555525,0,0,0.055555555555555525,0,0)" xlink:href="#aT"/><use transform="matrix(0.055555555555555525,0,0,0.055555555555555525,11.111111111111105,0)" xlink:href="#au"/><use transform="matrix(0.055555555555555525,0,0,0.055555555555555525,14.88888888888888,0)" xlink:href="#aG"/><use transform="matrix(0.055555555555555525,0,0,0.055555555555555525,25.999999999999986,0)" xlink:href="#aF"/><use transform="matrix(0.055555555555555525,0,0,0.055555555555555525,37.11111111111109,0)" xlink:href="#aT"/><use transform="matrix(0.055555555555555525,0,0,0.055555555555555525,48.2222222222222,0)" xlink:href="#au"/><use transform="matrix(0.055555555555555525,0,0,0.055555555555555525,51.99999999999998,0)" xlink:href="#av"/><use transform="matrix(0.055555555555555525,0,0,0.055555555555555525,63.111111111111086,0)" xlink:href="#aU"/><use transform="matrix(0.055555555555555525,0,0,0.055555555555555525,74.22222222222219,0)" xlink:href="#aF"/></g><path fill="#1071e5" d="M63-170c30 0 51 21 51 51 0 31-20 52-51 52s-52-21-52-52 21-51 52-51" id="aV"/><use transform="matrix(0.06172839506172839,0,0,0.06172839506172839,0,0)" xlink:href="#aV" id="m"/><path fill="#1071e5" d="M25-224v-37h50v37H25zM25 0v-190h50V0H25" id="aW"/><path fill="#1071e5" d="M88-194c31-1 46 15 58 34l-1-101h50l1 261h-48c-2-10 0-23-3-31C134-8 116 4 84 4 32 4 16-41 15-95c0-56 19-97 73-99zm17 164c33 0 40-30 41-66 1-37-9-64-41-64s-38 30-39 65c0 43 13 65 39 65" id="aX"/><g id="n"><use transform="matrix(0.06172839506172839,0,0,0.06172839506172839,0,0)" xlink:href="#aW"/><use transform="matrix(0.06172839506172839,0,0,0.06172839506172839,6.172839506172839,0)" xlink:href="#aX"/></g><use transform="matrix(0.06172839506172839,0,0,0.06172839506172839,0,0)" xlink:href="#aM" id="o"/><g id="p"><use transform="matrix(0.06172839506172839,0,0,0.06172839506172839,0,0)" xlink:href="#ap"/><use transform="matrix(0.06172839506172839,0,0,0.06172839506172839,6.172839506172839,0)" xlink:href="#aC"/><use transform="matrix(0.06172839506172839,0,0,0.06172839506172839,11.049382716049383,0)" xlink:href="#ap"/><use transform="matrix(0.06172839506172839,0,0,0.06172839506172839,17.22222222222222,0)" xlink:href="#aN"/><use transform="matrix(0.06172839506172839,0,0,0.06172839506172839,22.098765432098766,0)" xlink:href="#aA"/></g><g id="q"><use transform="matrix(0.06172839506172839,0,0,0.06172839506172839,0,0)" xlink:href="#aP"/><use transform="matrix(0.06172839506172839,0,0,0.06172839506172839,11.11111111111111,0)" xlink:href="#aA"/><use transform="matrix(0.06172839506172839,0,0,0.06172839506172839,23.45679012345679,0)" xlink:href="#aQ"/><use transform="matrix(0.06172839506172839,0,0,0.06172839506172839,35.80246913580247,0)" xlink:href="#as"/></g><path fill="#3a414a" d="M212-179c-10-28-35-45-73-45-59 0-87 40-87 99 0 60 29 101 89 101 43 0 62-24 78-52l27 14C228-24 195 4 139 4 59 4 22-46 18-125c-6-104 99-153 187-111 19 9 31 26 39 46" id="aY"/><g id="r"><use transform="matrix(0.06790123456790123,0,0,0.06790123456790123,0,0)" xlink:href="#aY"/><use transform="matrix(0.06790123456790123,0,0,0.06790123456790123,17.586419753086417,0)" xlink:href="#ar"/><use transform="matrix(0.06790123456790123,0,0,0.06790123456790123,31.166666666666664,0)" xlink:href="#aD"/><use transform="matrix(0.06790123456790123,0,0,0.06790123456790123,44.74691358024691,0)" xlink:href="#aO"/><use transform="matrix(0.06790123456790123,0,0,0.06790123456790123,51.537037037037045,0)" xlink:href="#aA"/><use transform="matrix(0.06790123456790123,0,0,0.06790123456790123,65.11728395061729,0)" xlink:href="#as"/><use transform="matrix(0.06790123456790123,0,0,0.06790123456790123,73.19753086419755,0)" xlink:href="#aA"/><use transform="matrix(0.06790123456790123,0,0,0.06790123456790123,86.7777777777778,0)" xlink:href="#aD"/><use transform="matrix(0.06790123456790123,0,0,0.06790123456790123,100.35802469135805,0)" xlink:href="#az"/><use transform="matrix(0.06790123456790123,0,0,0.06790123456790123,112.58024691358028,0)" xlink:href="#aA"/></g><g id="s"><use transform="matrix(0.05555555555555554,0,0,0.05555555555555554,0,0)" xlink:href="#aF"/><use transform="matrix(0.05555555555555554,0,0,0.05555555555555554,11.111111111111107,0)" xlink:href="#au"/><use transform="matrix(0.05555555555555554,0,0,0.05555555555555554,14.888888888888884,0)" xlink:href="#aI"/><use transform="matrix(0.05555555555555554,0,0,0.05555555555555554,25.999999999999993,0)" xlink:href="#av"/><use transform="matrix(0.05555555555555554,0,0,0.05555555555555554,37.1111111111111,0)" xlink:href="#aU"/></g><g id="t"><use transform="matrix(0.06172839506172839,0,0,0.06172839506172839,0,0)" xlink:href="#ap"/><use transform="matrix(0.06172839506172839,0,0,0.06172839506172839,6.172839506172839,0)" xlink:href="#aC"/><use transform="matrix(0.06172839506172839,0,0,0.06172839506172839,11.049382716049383,0)" xlink:href="#ap"/><use transform="matrix(0.06172839506172839,0,0,0.06172839506172839,17.22222222222222,0)" xlink:href="#aN"/><use transform="matrix(0.06172839506172839,0,0,0.06172839506172839,22.098765432098766,0)" xlink:href="#aA"/></g><path fill="#3a414a" d="M135-143c-3-34-86-38-87 0 15 53 115 12 119 90S17 21 10-45l28-5c4 36 97 45 98 0-10-56-113-15-118-90-4-57 82-63 122-42 12 7 21 19 24 35" id="aZ"/><g id="u"><use transform="matrix(0.0679012345679012,0,0,0.0679012345679012,0,0)" xlink:href="#aR"/><use transform="matrix(0.0679012345679012,0,0,0.0679012345679012,6.79012345679012,0)" xlink:href="#aD"/><use transform="matrix(0.0679012345679012,0,0,0.0679012345679012,20.37037037037036,0)" xlink:href="#aZ"/><use transform="matrix(0.0679012345679012,0,0,0.0679012345679012,32.592592592592574,0)" xlink:href="#ap"/><use transform="matrix(0.0679012345679012,0,0,0.0679012345679012,39.38271604938269,0)" xlink:href="#aC"/><use transform="matrix(0.0679012345679012,0,0,0.0679012345679012,44.74691358024689,0)" xlink:href="#ap"/><use transform="matrix(0.0679012345679012,0,0,0.0679012345679012,51.53703703703701,0)" xlink:href="#ao"/><use transform="matrix(0.0679012345679012,0,0,0.0679012345679012,65.11728395061725,0)" xlink:href="#ap"/><use transform="matrix(0.0679012345679012,0,0,0.0679012345679012,71.90740740740736,0)" xlink:href="#aC"/><use transform="matrix(0.0679012345679012,0,0,0.0679012345679012,77.27160493827155,0)" xlink:href="#ar"/><use transform="matrix(0.0679012345679012,0,0,0.0679012345679012,90.85185185185179,0)" xlink:href="#aD"/></g><g id="v"><use transform="matrix(0.05555555555555552,0,0,0.05555555555555552,0,0)" xlink:href="#aw"/><use transform="matrix(0.05555555555555552,0,0,0.05555555555555552,11.111111111111104,0)" xlink:href="#aH"/><use transform="matrix(0.05555555555555552,0,0,0.05555555555555552,22.222222222222207,0)" xlink:href="#aU"/></g><path fill="#008a0e" d="M63-170c30 0 51 21 51 51 0 31-20 52-51 52s-52-21-52-52 21-51 52-51" id="ba"/><use transform="matrix(0.06172839506172839,0,0,0.06172839506172839,0,0)" xlink:href="#ba" id="w"/><path fill="#008a0e" d="M135-194c87-1 58 113 63 194h-50c-7-57 23-157-34-157-59 0-34 97-39 157H25l-1-190h47c2 12-1 28 3 38 12-26 28-41 61-42" id="bb"/><path fill="#008a0e" d="M133-34C117-15 103 5 69 4 32 3 11-16 11-54c-1-60 55-63 116-61 1-26-3-47-28-47-18 1-26 9-28 27l-52-2c7-38 36-58 82-57s74 22 75 68l1 82c-1 14 12 18 25 15v27c-30 8-71 5-69-32zm-48 3c29 0 43-24 42-57-32 0-66-3-65 30 0 17 8 27 23 27" id="bc"/><path fill="#008a0e" d="M220-157c-53 9-28 100-34 157h-49v-107c1-27-5-49-29-50C55-147 81-57 75 0H25l-1-190h47c2 12-1 28 3 38 10-53 101-56 108 0 13-22 24-43 59-42 82 1 51 116 57 194h-49v-107c-1-25-5-48-29-50" id="bd"/><path fill="#008a0e" d="M185-48c-13 30-37 53-82 52C43 2 14-33 14-96s30-98 90-98c62 0 83 45 84 108H66c0 31 8 55 39 56 18 0 30-7 34-22zm-45-69c5-46-57-63-70-21-2 6-4 13-4 21h74" id="be"/><g id="x"><use transform="matrix(0.06172839506172839,0,0,0.06172839506172839,0,0)" xlink:href="#bb"/><use transform="matrix(0.06172839506172839,0,0,0.06172839506172839,13.518518518518517,0)" xlink:href="#bc"/><use transform="matrix(0.06172839506172839,0,0,0.06172839506172839,25.864197530864196,0)" xlink:href="#bd"/><use transform="matrix(0.06172839506172839,0,0,0.06172839506172839,45.61728395061728,0)" xlink:href="#be"/></g><g id="y"><use transform="matrix(0.06172839506172839,0,0,0.06172839506172839,0,0)" xlink:href="#aN"/><use transform="matrix(0.06172839506172839,0,0,0.06172839506172839,4.876543209876543,0)" xlink:href="#aQ"/><use transform="matrix(0.06172839506172839,0,0,0.06172839506172839,17.22222222222222,0)" xlink:href="#ap"/></g><g id="z"><use transform="matrix(0.06172839506172839,0,0,0.06172839506172839,0,0)" xlink:href="#aN"/><use transform="matrix(0.06172839506172839,0,0,0.06172839506172839,4.876543209876543,0)" xlink:href="#ar"/><use transform="matrix(0.06172839506172839,0,0,0.06172839506172839,17.22222222222222,0)" xlink:href="#aD"/></g><g id="A"><use transform="matrix(0.06790123456790122,0,0,0.06790123456790122,0,0)" xlink:href="#aY"/><use transform="matrix(0.06790123456790122,0,0,0.06790123456790122,17.586419753086414,0)" xlink:href="#ar"/><use transform="matrix(0.06790123456790122,0,0,0.06790123456790122,31.166666666666657,0)" xlink:href="#ao"/><use transform="matrix(0.06790123456790122,0,0,0.06790123456790122,44.7469135802469,0)" xlink:href="#aD"/><use transform="matrix(0.06790123456790122,0,0,0.06790123456790122,58.32716049382714,0)" xlink:href="#ap"/><use transform="matrix(0.06790123456790122,0,0,0.06790123456790122,65.11728395061726,0)" xlink:href="#as"/><use transform="matrix(0.06790123456790122,0,0,0.06790123456790122,73.1975308641975,0)" xlink:href="#aP"/></g><g id="B"><use transform="matrix(0.055555555555555525,0,0,0.055555555555555525,0,0)" xlink:href="#aG"/><use transform="matrix(0.055555555555555525,0,0,0.055555555555555525,11.111111111111105,0)" xlink:href="#aG"/></g><path fill="#fc9432" d="M63-170c30 0 51 21 51 51 0 31-20 52-51 52s-52-21-52-52 21-51 52-51" id="bf"/><use transform="matrix(0.06172839506172839,0,0,0.06172839506172839,0,0)" xlink:href="#bf" id="C"/><path fill="#fc9432" d="M25-224v-37h50v37H25zM25 0v-190h50V0H25" id="bg"/><path fill="#fc9432" d="M88-194c31-1 46 15 58 34l-1-101h50l1 261h-48c-2-10 0-23-3-31C134-8 116 4 84 4 32 4 16-41 15-95c0-56 19-97 73-99zm17 164c33 0 40-30 41-66 1-37-9-64-41-64s-38 30-39 65c0 43 13 65 39 65" id="bh"/><g id="D"><use transform="matrix(0.06172839506172839,0,0,0.06172839506172839,0,0)" xlink:href="#bg"/><use transform="matrix(0.06172839506172839,0,0,0.06172839506172839,6.172839506172839,0)" xlink:href="#bh"/></g><path fill="#3a414a" d="M210-169c-67 3-38 105-44 169h-31v-121c0-29-5-50-35-48C34-165 62-65 56 0H25l-1-190h30c1 10-1 24 2 32 10-44 99-50 107 0 11-21 27-35 58-36 85-2 47 119 55 194h-31v-121c0-29-5-49-35-48" id="bi"/><g id="E"><use transform="matrix(0.06172839506172839,0,0,0.06172839506172839,0,0)" xlink:href="#aD"/><use transform="matrix(0.06172839506172839,0,0,0.06172839506172839,12.345679012345679,0)" xlink:href="#aQ"/><use transform="matrix(0.06172839506172839,0,0,0.06172839506172839,24.691358024691358,0)" xlink:href="#bi"/><use transform="matrix(0.06172839506172839,0,0,0.06172839506172839,43.148148148148145,0)" xlink:href="#aA"/></g><path fill="#3a414a" d="M233-177c-1 41-23 64-60 70L243 0h-38l-65-103H63V0H30v-248c88 3 205-21 203 71zM63-129c60-2 137 13 137-47 0-61-80-42-137-45v92" id="bj"/><g id="F"><use transform="matrix(0.06790123456790122,0,0,0.06790123456790122,0,0)" xlink:href="#bj"/><use transform="matrix(0.06790123456790122,0,0,0.06790123456790122,17.586419753086414,0)" xlink:href="#aA"/><use transform="matrix(0.06790123456790122,0,0,0.06790123456790122,31.166666666666657,0)" xlink:href="#aE"/><use transform="matrix(0.06790123456790122,0,0,0.06790123456790122,44.7469135802469,0)" xlink:href="#aC"/><use transform="matrix(0.06790123456790122,0,0,0.06790123456790122,50.11111111111109,0)" xlink:href="#ar"/><use transform="matrix(0.06790123456790122,0,0,0.06790123456790122,63.69135802469134,0)" xlink:href="#aD"/></g><use transform="matrix(0.055555555555555525,0,0,0.055555555555555525,0,0)" xlink:href="#ax" id="G"/><g id="H"><use transform="matrix(0.06172839506172839,0,0,0.06172839506172839,0,0)" xlink:href="#aD"/><use transform="matrix(0.06172839506172839,0,0,0.06172839506172839,12.345679012345679,0)" xlink:href="#aQ"/><use transform="matrix(0.06172839506172839,0,0,0.06172839506172839,24.691358024691358,0)" xlink:href="#bi"/><use transform="matrix(0.06172839506172839,0,0,0.06172839506172839,43.148148148148145,0)" xlink:href="#aA"/></g><g id="I"><use transform="matrix(0.06790123456790122,0,0,0.06790123456790122,0,0)" xlink:href="#an"/><use transform="matrix(0.06790123456790122,0,0,0.06790123456790122,16.29629629629629,0)" xlink:href="#as"/><use transform="matrix(0.06790123456790122,0,0,0.06790123456790122,24.376543209876537,0)" xlink:href="#aA"/><use transform="matrix(0.06790123456790122,0,0,0.06790123456790122,37.95679012345679,0)" xlink:href="#aQ"/></g><use transform="matrix(0.055555555555555525,0,0,0.055555555555555525,0,0)" xlink:href="#aF" id="J"/><path fill="#3a414a" d="M115-194c53 0 69 39 70 98 0 66-23 100-70 100C84 3 66-7 56-30L54 0H23l1-261h32v101c10-23 28-34 59-34zm-8 174c40 0 45-34 45-75 0-40-5-75-45-74-42 0-51 32-51 76 0 43 10 73 51 73" id="bk"/><g id="K"><use transform="matrix(0.06172839506172839,0,0,0.06172839506172839,0,0)" xlink:href="#aN"/><use transform="matrix(0.06172839506172839,0,0,0.06172839506172839,4.876543209876543,0)" xlink:href="#aQ"/><use transform="matrix(0.06172839506172839,0,0,0.06172839506172839,17.22222222222222,0)" xlink:href="#bk"/><use transform="matrix(0.06172839506172839,0,0,0.06172839506172839,29.5679012345679,0)" xlink:href="#aA"/><use transform="matrix(0.06172839506172839,0,0,0.06172839506172839,41.913580246913575,0)" xlink:href="#aN"/></g><path fill="#3a414a" d="M185-189c-5-48-123-54-124 2 14 75 158 14 163 119 3 78-121 87-175 55-17-10-28-26-33-46l33-7c5 56 141 63 141-1 0-78-155-14-162-118-5-82 145-84 179-34 5 7 8 16 11 25" id="bl"/><g id="L"><use transform="matrix(0.06790123456790122,0,0,0.06790123456790122,0,0)" xlink:href="#bl"/><use transform="matrix(0.06790123456790122,0,0,0.06790123456790122,16.29629629629629,0)" xlink:href="#ao"/><use transform="matrix(0.06790123456790122,0,0,0.06790123456790122,29.876543209876534,0)" xlink:href="#bk"/><use transform="matrix(0.06790123456790122,0,0,0.06790123456790122,43.45679012345678,0)" xlink:href="#an"/><use transform="matrix(0.06790123456790122,0,0,0.06790123456790122,59.75308641975307,0)" xlink:href="#as"/><use transform="matrix(0.06790123456790122,0,0,0.06790123456790122,67.83333333333331,0)" xlink:href="#aA"/><use transform="matrix(0.06790123456790122,0,0,0.06790123456790122,81.41358024691355,0)" xlink:href="#aQ"/></g><g id="M"><use transform="matrix(0.055555555555555525,0,0,0.055555555555555525,0,0)" xlink:href="#aT"/><use transform="matrix(0.055555555555555525,0,0,0.055555555555555525,11.111111111111105,0)" xlink:href="#aF"/></g><path fill="#3a414a" d="M135-194c53 0 70 44 70 98 0 56-19 98-73 100-31 1-45-17-59-34 3 33 2 69 2 105H25l-1-265h48c2 10 0 23 3 31 11-24 29-35 60-35zM114-30c33 0 39-31 40-66 0-38-9-64-40-64-56 0-55 130 0 130" id="bm"/><g id="N"><use transform="matrix(0.06172839506172839,0,0,0.06172839506172839,0,0)" xlink:href="#bm"/><use transform="matrix(0.06172839506172839,0,0,0.06172839506172839,13.518518518518517,0)" xlink:href="#aK"/><use transform="matrix(0.06172839506172839,0,0,0.06172839506172839,19.691358024691358,0)" xlink:href="#aL"/></g><g id="O"><use transform="matrix(0.06172839506172839,0,0,0.06172839506172839,0,0)" xlink:href="#aD"/><use transform="matrix(0.06172839506172839,0,0,0.06172839506172839,12.345679012345679,0)" xlink:href="#aQ"/><use transform="matrix(0.06172839506172839,0,0,0.06172839506172839,24.691358024691358,0)" xlink:href="#bi"/><use transform="matrix(0.06172839506172839,0,0,0.06172839506172839,43.148148148148145,0)" xlink:href="#aA"/></g><path fill="#008a0e" d="M121-226c-27-7-43 5-38 36h38v33H83V0H34v-157H6v-33h28c-9-59 32-81 87-68v32" id="bn"/><path fill="#008a0e" d="M25-224v-37h50v37H25zM25 0v-190h50V0H25" id="bo"/><path fill="#008a0e" d="M25 0v-261h50V0H25" id="bp"/><path fill="#008a0e" d="M115-3C79 11 28 4 28-45v-112H4v-33h27l15-45h31v45h36v33H77v99c-1 23 16 31 38 25v30" id="bq"/><path fill="#008a0e" d="M110-194c64 0 96 36 96 99 0 64-35 99-97 99-61 0-95-36-95-99 0-62 34-99 96-99zm-1 164c35 0 45-28 45-65 0-40-10-65-43-65-34 0-45 26-45 65 0 36 10 65 43 65" id="br"/><g id="P"><use transform="matrix(0.06172839506172839,0,0,0.06172839506172839,0,0)" xlink:href="#bc"/><use transform="matrix(0.06172839506172839,0,0,0.06172839506172839,12.345679012345679,0)" xlink:href="#bn"/><use transform="matrix(0.06172839506172839,0,0,0.06172839506172839,19.691358024691358,0)" xlink:href="#bn"/><use transform="matrix(0.06172839506172839,0,0,0.06172839506172839,27.037037037037038,0)" xlink:href="#bo"/><use transform="matrix(0.06172839506172839,0,0,0.06172839506172839,33.20987654320988,0)" xlink:href="#bp"/><use transform="matrix(0.06172839506172839,0,0,0.06172839506172839,39.38271604938272,0)" xlink:href="#bo"/><use transform="matrix(0.06172839506172839,0,0,0.06172839506172839,45.555555555555564,0)" xlink:href="#bc"/><use transform="matrix(0.06172839506172839,0,0,0.06172839506172839,57.90123456790124,0)" xlink:href="#bq"/><use transform="matrix(0.06172839506172839,0,0,0.06172839506172839,65.24691358024693,0)" xlink:href="#bo"/><use transform="matrix(0.06172839506172839,0,0,0.06172839506172839,71.41975308641976,0)" xlink:href="#br"/><use transform="matrix(0.06172839506172839,0,0,0.06172839506172839,84.93827160493828,0)" xlink:href="#bb"/></g><path fill="#fc9432" d="M190-63c-7 42-38 67-86 67-59 0-84-38-90-98-12-110 154-137 174-36l-49 2c-2-19-15-32-35-32-30 0-35 28-38 64-6 74 65 87 74 30" id="bs"/><path fill="#fc9432" d="M110-194c64 0 96 36 96 99 0 64-35 99-97 99-61 0-95-36-95-99 0-62 34-99 96-99zm-1 164c35 0 45-28 45-65 0-40-10-65-43-65-34 0-45 26-45 65 0 36 10 65 43 65" id="bt"/><path fill="#fc9432" d="M85 4C-2 5 27-109 22-190h50c7 57-23 150 33 157 60-5 35-97 40-157h50l1 190h-47c-2-12 1-28-3-38-12 25-28 42-61 42" id="bu"/><path fill="#fc9432" d="M135-194c87-1 58 113 63 194h-50c-7-57 23-157-34-157-59 0-34 97-39 157H25l-1-190h47c2 12-1 28 3 38 12-26 28-41 61-42" id="bv"/><path fill="#fc9432" d="M115-3C79 11 28 4 28-45v-112H4v-33h27l15-45h31v45h36v33H77v99c-1 23 16 31 38 25v30" id="bw"/><path fill="#fc9432" d="M135-150c-39-12-60 13-60 57V0H25l-1-190h47c2 13-1 29 3 40 6-28 27-53 61-41v41" id="bx"/><path fill="#fc9432" d="M123 10C108 53 80 86 19 72V37c35 8 53-11 59-39L3-190h52l48 148c12-52 28-100 44-148h51" id="by"/><g id="Q"><use transform="matrix(0.06172839506172839,0,0,0.06172839506172839,0,0)" xlink:href="#bs"/><use transform="matrix(0.06172839506172839,0,0,0.06172839506172839,12.345679012345679,0)" xlink:href="#bt"/><use transform="matrix(0.06172839506172839,0,0,0.06172839506172839,25.864197530864196,0)" xlink:href="#bu"/><use transform="matrix(0.06172839506172839,0,0,0.06172839506172839,39.382716049382715,0)" xlink:href="#bv"/><use transform="matrix(0.06172839506172839,0,0,0.06172839506172839,52.901234567901234,0)" xlink:href="#bw"/><use transform="matrix(0.06172839506172839,0,0,0.06172839506172839,60.24691358024691,0)" xlink:href="#bx"/><use transform="matrix(0.06172839506172839,0,0,0.06172839506172839,68.88888888888889,0)" xlink:href="#by"/></g><g id="R"><use transform="matrix(0.06172839506172839,0,0,0.06172839506172839,0,0)" xlink:href="#aq"/><use transform="matrix(0.06172839506172839,0,0,0.06172839506172839,12.345679012345679,0)" xlink:href="#ar"/><use transform="matrix(0.06172839506172839,0,0,0.06172839506172839,24.691358024691358,0)" xlink:href="#bi"/><use transform="matrix(0.06172839506172839,0,0,0.06172839506172839,43.148148148148145,0)" xlink:href="#aA"/><use transform="matrix(0.06172839506172839,0,0,0.06172839506172839,55.49382716049382,0)" xlink:href="#aS"/><use transform="matrix(0.06172839506172839,0,0,0.06172839506172839,67.8395061728395,0)" xlink:href="#aQ"/><use transform="matrix(0.06172839506172839,0,0,0.06172839506172839,80.18518518518519,0)" xlink:href="#aE"/><use transform="matrix(0.06172839506172839,0,0,0.06172839506172839,92.53086419753087,0)" xlink:href="#aA"/></g><g id="S"><use transform="matrix(0.06172839506172839,0,0,0.06172839506172839,0,0)" xlink:href="#aZ"/><use transform="matrix(0.06172839506172839,0,0,0.06172839506172839,11.11111111111111,0)" xlink:href="#az"/><use transform="matrix(0.06172839506172839,0,0,0.06172839506172839,22.22222222222222,0)" xlink:href="#aq"/><use transform="matrix(0.06172839506172839,0,0,0.06172839506172839,34.5679012345679,0)" xlink:href="#ar"/><use transform="matrix(0.06172839506172839,0,0,0.06172839506172839,46.913580246913575,0)" xlink:href="#aN"/><use transform="matrix(0.06172839506172839,0,0,0.06172839506172839,51.79012345679012,0)" xlink:href="#aQ"/><use transform="matrix(0.06172839506172839,0,0,0.06172839506172839,64.1358024691358,0)" xlink:href="#as"/><use transform="matrix(0.06172839506172839,0,0,0.06172839506172839,71.48148148148148,0)" xlink:href="#aC"/><use transform="matrix(0.06172839506172839,0,0,0.06172839506172839,76.35802469135803,0)" xlink:href="#aB"/></g><path fill="#333" d="M35-132v-50h50v50H35zM35 0v-49h50V0H35" id="bz"/><path fill="#333" d="M67-125c0 53 21 87 73 88 37 1 54-22 65-47l45 17C233-25 199 4 140 4 58 4 20-42 15-125 8-235 124-281 211-232c18 10 29 29 36 50l-46 12c-8-25-30-41-62-41-52 0-71 34-72 86" id="bA"/><path fill="#333" d="M110-194c64 0 96 36 96 99 0 64-35 99-97 99-61 0-95-36-95-99 0-62 34-99 96-99zm-1 164c35 0 45-28 45-65 0-40-10-65-43-65-34 0-45 26-45 65 0 36 10 65 43 65" id="bB"/><path fill="#333" d="M25 0v-261h50V0H25" id="bC"/><path fill="#333" d="M133-34C117-15 103 5 69 4 32 3 11-16 11-54c-1-60 55-63 116-61 1-26-3-47-28-47-18 1-26 9-28 27l-52-2c7-38 36-58 82-57s74 22 75 68l1 82c-1 14 12 18 25 15v27c-30 8-71 5-69-32zm-48 3c29 0 43-24 42-57-32 0-66-3-65 30 0 17 8 27 23 27" id="bD"/><path fill="#333" d="M135-194c52 0 70 43 70 98 0 56-19 99-73 100-30 1-46-15-58-35L72 0H24l1-261h50v104c11-23 29-37 60-37zM114-30c31 0 40-27 40-66 0-37-7-63-39-63s-41 28-41 65c0 36 8 64 40 64" id="bE"/><path fill="#333" d="M135-150c-39-12-60 13-60 57V0H25l-1-190h47c2 13-1 29 3 40 6-28 27-53 61-41v41" id="bF"/><path fill="#333" d="M115-3C79 11 28 4 28-45v-112H4v-33h27l15-45h31v45h36v33H77v99c-1 23 16 31 38 25v30" id="bG"/><path fill="#333" d="M25-224v-37h50v37H25zM25 0v-190h50V0H25" id="bH"/><path fill="#333" d="M135-194c87-1 58 113 63 194h-50c-7-57 23-157-34-157-59 0-34 97-39 157H25l-1-190h47c2 12-1 28 3 38 12-26 28-41 61-42" id="bI"/><g id="T"><use transform="matrix(0.06172839506172839,0,0,0.06172839506172839,0,0)" xlink:href="#bz"/><use transform="matrix(0.06172839506172839,0,0,0.06172839506172839,7.345679012345679,0)" xlink:href="#bA"/><use transform="matrix(0.06172839506172839,0,0,0.06172839506172839,23.333333333333332,0)" xlink:href="#bB"/><use transform="matrix(0.06172839506172839,0,0,0.06172839506172839,36.85185185185185,0)" xlink:href="#bC"/><use transform="matrix(0.06172839506172839,0,0,0.06172839506172839,43.02469135802469,0)" xlink:href="#bC"/><use transform="matrix(0.06172839506172839,0,0,0.06172839506172839,49.19753086419753,0)" xlink:href="#bD"/><use transform="matrix(0.06172839506172839,0,0,0.06172839506172839,61.54320987654321,0)" xlink:href="#bE"/><use transform="matrix(0.06172839506172839,0,0,0.06172839506172839,75.06172839506172,0)" xlink:href="#bB"/><use transform="matrix(0.06172839506172839,0,0,0.06172839506172839,88.58024691358024,0)" xlink:href="#bF"/><use transform="matrix(0.06172839506172839,0,0,0.06172839506172839,97.22222222222221,0)" xlink:href="#bD"/><use transform="matrix(0.06172839506172839,0,0,0.06172839506172839,109.5679012345679,0)" xlink:href="#bG"/><use transform="matrix(0.06172839506172839,0,0,0.06172839506172839,116.91358024691358,0)" xlink:href="#bH"/><use transform="matrix(0.06172839506172839,0,0,0.06172839506172839,123.08641975308642,0)" xlink:href="#bB"/><use transform="matrix(0.06172839506172839,0,0,0.06172839506172839,136.60493827160494,0)" xlink:href="#bI"/></g><path fill="#1071e5" d="M135-150c-39-12-60 13-60 57V0H25l-1-190h47c2 13-1 29 3 40 6-28 27-53 61-41v41" id="bJ"/><path fill="#1071e5" d="M185-48c-13 30-37 53-82 52C43 2 14-33 14-96s30-98 90-98c62 0 83 45 84 108H66c0 31 8 55 39 56 18 0 30-7 34-22zm-45-69c5-46-57-63-70-21-2 6-4 13-4 21h74" id="bK"/><path fill="#1071e5" d="M190-63c-7 42-38 67-86 67-59 0-84-38-90-98-12-110 154-137 174-36l-49 2c-2-19-15-32-35-32-30 0-35 28-38 64-6 74 65 87 74 30" id="bL"/><path fill="#1071e5" d="M110-194c64 0 96 36 96 99 0 64-35 99-97 99-61 0-95-36-95-99 0-62 34-99 96-99zm-1 164c35 0 45-28 45-65 0-40-10-65-43-65-34 0-45 26-45 65 0 36 10 65 43 65" id="bM"/><g id="U"><use transform="matrix(0.06172839506172839,0,0,0.06172839506172839,0,0)" xlink:href="#bJ"/><use transform="matrix(0.06172839506172839,0,0,0.06172839506172839,8.641975308641975,0)" xlink:href="#bK"/><use transform="matrix(0.06172839506172839,0,0,0.06172839506172839,20.98765432098765,0)" xlink:href="#bL"/><use transform="matrix(0.06172839506172839,0,0,0.06172839506172839,33.33333333333333,0)" xlink:href="#bM"/><use transform="matrix(0.06172839506172839,0,0,0.06172839506172839,46.85185185185185,0)" xlink:href="#bJ"/><use transform="matrix(0.06172839506172839,0,0,0.06172839506172839,55.49382716049382,0)" xlink:href="#aX"/></g><g id="V"><use transform="matrix(0.06172839506172839,0,0,0.06172839506172839,0,0)" xlink:href="#aP"/><use transform="matrix(0.06172839506172839,0,0,0.06172839506172839,11.11111111111111,0)" xlink:href="#aA"/><use transform="matrix(0.06172839506172839,0,0,0.06172839506172839,23.45679012345679,0)" xlink:href="#aQ"/><use transform="matrix(0.06172839506172839,0,0,0.06172839506172839,35.80246913580247,0)" xlink:href="#as"/></g><g id="W"><use transform="matrix(0.06172839506172839,0,0,0.06172839506172839,0,0)" xlink:href="#aC"/><use transform="matrix(0.06172839506172839,0,0,0.06172839506172839,4.876543209876543,0)" xlink:href="#aB"/></g><path fill="#333" d="M24 0v-248h52v208h133V0H24" id="bN"/><path fill="#333" d="M190-63c-7 42-38 67-86 67-59 0-84-38-90-98-12-110 154-137 174-36l-49 2c-2-19-15-32-35-32-30 0-35 28-38 64-6 74 65 87 74 30" id="bO"/><path fill="#333" d="M185-48c-13 30-37 53-82 52C43 2 14-33 14-96s30-98 90-98c62 0 83 45 84 108H66c0 31 8 55 39 56 18 0 30-7 34-22zm-45-69c5-46-57-63-70-21-2 6-4 13-4 21h74" id="bP"/><path fill="#333" d="M88-194c31-1 46 15 58 34l-1-101h50l1 261h-48c-2-10 0-23-3-31C134-8 116 4 84 4 32 4 16-41 15-95c0-56 19-97 73-99zm17 164c33 0 40-30 41-66 1-37-9-64-41-64s-38 30-39 65c0 43 13 65 39 65" id="bQ"/><path fill="#333" d="M24 0v-248h52V0H24" id="bR"/><g id="X"><use transform="matrix(0.06172839506172839,0,0,0.06172839506172839,0,0)" xlink:href="#bz"/><use transform="matrix(0.06172839506172839,0,0,0.06172839506172839,7.345679012345679,0)" xlink:href="#bN"/><use transform="matrix(0.06172839506172839,0,0,0.06172839506172839,20.864197530864196,0)" xlink:href="#bB"/><use transform="matrix(0.06172839506172839,0,0,0.06172839506172839,34.382716049382715,0)" xlink:href="#bO"/><use transform="matrix(0.06172839506172839,0,0,0.06172839506172839,46.72839506172839,0)" xlink:href="#bD"/><use transform="matrix(0.06172839506172839,0,0,0.06172839506172839,59.07407407407407,0)" xlink:href="#bG"/><use transform="matrix(0.06172839506172839,0,0,0.06172839506172839,66.41975308641975,0)" xlink:href="#bP"/><use transform="matrix(0.06172839506172839,0,0,0.06172839506172839,78.76543209876543,0)" xlink:href="#bQ"/><use transform="matrix(0.06172839506172839,0,0,0.06172839506172839,92.28395061728395,0)" xlink:href="#bR"/><use transform="matrix(0.06172839506172839,0,0,0.06172839506172839,98.45679012345678,0)" xlink:href="#bI"/></g><path fill="#333" d="M199 0l-22-63H83L61 0H9l90-248h61L250 0h-51zm-33-102l-36-108c-10 38-24 72-36 108h72" id="bS"/><path fill="#333" d="M121-226c-27-7-43 5-38 36h38v33H83V0H34v-157H6v-33h28c-9-59 32-81 87-68v32" id="bT"/><g id="Y"><use transform="matrix(0.061728395061728385,0,0,0.061728395061728385,0,0)" xlink:href="#bz"/><use transform="matrix(0.061728395061728385,0,0,0.061728395061728385,7.345679012345678,0)" xlink:href="#bS"/><use transform="matrix(0.061728395061728385,0,0,0.061728395061728385,23.33333333333333,0)" xlink:href="#bT"/><use transform="matrix(0.061728395061728385,0,0,0.061728395061728385,30.679012345679006,0)" xlink:href="#bT"/><use transform="matrix(0.061728395061728385,0,0,0.061728395061728385,38.02469135802468,0)" xlink:href="#bH"/><use transform="matrix(0.061728395061728385,0,0,0.061728395061728385,44.19753086419752,0)" xlink:href="#bC"/><use transform="matrix(0.061728395061728385,0,0,0.061728395061728385,50.37037037037035,0)" xlink:href="#bH"/><use transform="matrix(0.061728395061728385,0,0,0.061728395061728385,56.54320987654319,0)" xlink:href="#bD"/><use transform="matrix(0.061728395061728385,0,0,0.061728395061728385,68.88888888888886,0)" xlink:href="#bG"/><use transform="matrix(0.061728395061728385,0,0,0.061728395061728385,76.23456790123454,0)" xlink:href="#bH"/><use transform="matrix(0.061728395061728385,0,0,0.061728395061728385,82.40740740740738,0)" xlink:href="#bB"/><use transform="matrix(0.061728395061728385,0,0,0.061728395061728385,95.9259259259259,0)" xlink:href="#bI"/></g><path fill="#333" d="M137-138c1-29-70-34-71-4 15 46 118 7 119 86 1 83-164 76-172 9l43-7c4 19 20 25 44 25 33 8 57-30 24-41C81-84 22-81 20-136c-2-80 154-74 161-7" id="bU"/><g id="Z"><use transform="matrix(0.06172839506172839,0,0,0.06172839506172839,0,0)" xlink:href="#bz"/><use transform="matrix(0.06172839506172839,0,0,0.06172839506172839,7.345679012345679,0)" xlink:href="#bA"/><use transform="matrix(0.06172839506172839,0,0,0.06172839506172839,23.333333333333332,0)" xlink:href="#bF"/><use transform="matrix(0.06172839506172839,0,0,0.06172839506172839,31.975308641975307,0)" xlink:href="#bB"/><use transform="matrix(0.06172839506172839,0,0,0.06172839506172839,45.49382716049382,0)" xlink:href="#bU"/><use transform="matrix(0.06172839506172839,0,0,0.06172839506172839,57.8395061728395,0)" xlink:href="#bU"/><use transform="matrix(0.06172839506172839,0,0,0.06172839506172839,70.18518518518518,0)" xlink:href="#bF"/><use transform="matrix(0.06172839506172839,0,0,0.06172839506172839,78.82716049382715,0)" xlink:href="#bP"/><use transform="matrix(0.06172839506172839,0,0,0.06172839506172839,91.17283950617283,0)" xlink:href="#bT"/></g><path fill="#333" d="M182-130c37 4 62 22 62 59C244 23 116-4 24 0v-248c84 5 203-23 205 63 0 31-19 50-47 55zM76-148c40-3 101 13 101-30 0-44-60-28-101-31v61zm0 110c48-3 116 14 116-37 0-48-69-32-116-35v72" id="bV"/><path fill="#333" d="M195-6C206 82 75 100 31 46c-4-6-6-13-8-21l49-6c3 16 16 24 34 25 40 0 42-37 40-79-11 22-30 35-61 35-53 0-70-43-70-97 0-56 18-96 73-97 30 0 46 14 59 34l2-30h47zm-90-29c32 0 41-27 41-63 0-35-9-62-40-62-32 0-39 29-40 63 0 36 9 62 39 62" id="bW"/><path fill="#333" d="M136-208V0H84v-208H4v-40h212v40h-80" id="bX"/><g id="aa"><use transform="matrix(0.06172839506172839,0,0,0.06172839506172839,0,0)" xlink:href="#bz"/><use transform="matrix(0.06172839506172839,0,0,0.06172839506172839,7.345679012345679,0)" xlink:href="#bV"/><use transform="matrix(0.06172839506172839,0,0,0.06172839506172839,23.333333333333332,0)" xlink:href="#bP"/><use transform="matrix(0.06172839506172839,0,0,0.06172839506172839,35.67901234567901,0)" xlink:href="#bC"/><use transform="matrix(0.06172839506172839,0,0,0.06172839506172839,41.851851851851855,0)" xlink:href="#bB"/><use transform="matrix(0.06172839506172839,0,0,0.06172839506172839,55.370370370370374,0)" xlink:href="#bI"/><use transform="matrix(0.06172839506172839,0,0,0.06172839506172839,68.88888888888889,0)" xlink:href="#bW"/><use transform="matrix(0.06172839506172839,0,0,0.06172839506172839,82.4074074074074,0)" xlink:href="#bU"/><use transform="matrix(0.06172839506172839,0,0,0.06172839506172839,94.75308641975309,0)" xlink:href="#bX"/><use transform="matrix(0.06172839506172839,0,0,0.06172839506172839,106.60493827160494,0)" xlink:href="#bB"/><use transform="matrix(0.06172839506172839,0,0,0.06172839506172839,120.12345679012346,0)" xlink:href="#bA"/><use transform="matrix(0.06172839506172839,0,0,0.06172839506172839,136.11111111111111,0)" xlink:href="#bB"/><use transform="matrix(0.06172839506172839,0,0,0.06172839506172839,149.62962962962962,0)" xlink:href="#bI"/><use transform="matrix(0.06172839506172839,0,0,0.06172839506172839,163.14814814814812,0)" xlink:href="#bT"/></g><g id="ab"><use transform="matrix(0.06172839506172839,0,0,0.06172839506172839,0,0)" xlink:href="#bz"/><use transform="matrix(0.06172839506172839,0,0,0.06172839506172839,7.345679012345679,0)" xlink:href="#bV"/><use transform="matrix(0.06172839506172839,0,0,0.06172839506172839,23.333333333333332,0)" xlink:href="#bP"/><use transform="matrix(0.06172839506172839,0,0,0.06172839506172839,35.67901234567901,0)" xlink:href="#bC"/><use transform="matrix(0.06172839506172839,0,0,0.06172839506172839,41.851851851851855,0)" xlink:href="#bB"/><use transform="matrix(0.06172839506172839,0,0,0.06172839506172839,55.370370370370374,0)" xlink:href="#bI"/><use transform="matrix(0.06172839506172839,0,0,0.06172839506172839,68.88888888888889,0)" xlink:href="#bW"/><use transform="matrix(0.06172839506172839,0,0,0.06172839506172839,82.4074074074074,0)" xlink:href="#bX"/><use transform="matrix(0.06172839506172839,0,0,0.06172839506172839,94.25925925925925,0)" xlink:href="#bB"/><use transform="matrix(0.06172839506172839,0,0,0.06172839506172839,107.77777777777777,0)" xlink:href="#bS"/><use transform="matrix(0.06172839506172839,0,0,0.06172839506172839,123.76543209876543,0)" xlink:href="#bF"/><use transform="matrix(0.06172839506172839,0,0,0.06172839506172839,132.4074074074074,0)" xlink:href="#bP"/><use transform="matrix(0.06172839506172839,0,0,0.06172839506172839,144.75308641975306,0)" xlink:href="#bD"/></g><path fill="#333" d="M240-174c0 40-23 61-54 70L253 0h-59l-57-94H76V0H24v-248c93 4 217-23 216 74zM76-134c48-2 112 12 112-38 0-48-66-32-112-35v73" id="bY"/><g id="ac"><use transform="matrix(0.06172839506172839,0,0,0.06172839506172839,0,0)" xlink:href="#bz"/><use transform="matrix(0.06172839506172839,0,0,0.06172839506172839,7.345679012345679,0)" xlink:href="#bR"/><use transform="matrix(0.06172839506172839,0,0,0.06172839506172839,13.518518518518519,0)" xlink:href="#bI"/><use transform="matrix(0.06172839506172839,0,0,0.06172839506172839,27.037037037037038,0)" xlink:href="#bY"/><use transform="matrix(0.06172839506172839,0,0,0.06172839506172839,43.02469135802469,0)" xlink:href="#bP"/><use transform="matrix(0.06172839506172839,0,0,0.06172839506172839,55.37037037037037,0)" xlink:href="#bW"/><use transform="matrix(0.06172839506172839,0,0,0.06172839506172839,68.88888888888889,0)" xlink:href="#bH"/><use transform="matrix(0.06172839506172839,0,0,0.06172839506172839,75.06172839506172,0)" xlink:href="#bB"/><use transform="matrix(0.06172839506172839,0,0,0.06172839506172839,88.58024691358024,0)" xlink:href="#bI"/></g><path fill="#333" d="M169-182c-1-43-94-46-97-3 18 66 151 10 154 114 3 95-165 93-204 36-6-8-10-19-12-30l50-8c3 46 112 56 116 5-17-69-150-10-154-114-4-87 153-88 188-35 5 8 8 18 10 28" id="bZ"/><path fill="#333" d="M85 4C-2 5 27-109 22-190h50c7 57-23 150 33 157 60-5 35-97 40-157h50l1 190h-47c-2-12 1-28-3-38-12 25-28 42-61 42" id="ca"/><path fill="#333" d="M140-251c80 0 125 45 125 126S219 4 139 4C58 4 15-44 15-125s44-126 125-126zm-1 214c52 0 73-35 73-88 0-50-21-86-72-86-52 0-73 35-73 86s22 88 72 88" id="cb"/><g id="ad"><use transform="matrix(0.06172839506172839,0,0,0.06172839506172839,0,0)" xlink:href="#bz"/><use transform="matrix(0.06172839506172839,0,0,0.06172839506172839,7.345679012345679,0)" xlink:href="#bZ"/><use transform="matrix(0.06172839506172839,0,0,0.06172839506172839,22.160493827160494,0)" xlink:href="#ca"/><use transform="matrix(0.06172839506172839,0,0,0.06172839506172839,35.67901234567901,0)" xlink:href="#bE"/><use transform="matrix(0.06172839506172839,0,0,0.06172839506172839,49.19753086419753,0)" xlink:href="#bS"/><use transform="matrix(0.06172839506172839,0,0,0.06172839506172839,65.18518518518519,0)" xlink:href="#bF"/><use transform="matrix(0.06172839506172839,0,0,0.06172839506172839,73.82716049382717,0)" xlink:href="#bP"/><use transform="matrix(0.06172839506172839,0,0,0.06172839506172839,86.17283950617285,0)" xlink:href="#bD"/><use transform="matrix(0.06172839506172839,0,0,0.06172839506172839,98.51851851851853,0)" xlink:href="#cb"/><use transform="matrix(0.06172839506172839,0,0,0.06172839506172839,115.80246913580248,0)" xlink:href="#bT"/></g><path d="M101-251c82-7 93 87 43 132L82-64C71-53 59-42 53-27h129V0H18c2-99 128-94 128-182 0-28-16-43-45-43s-46 15-49 41l-32-3c6-41 34-60 81-64" id="cc"/><path d="M155-56V0h-30v-56H8v-25l114-167h33v167h35v25h-35zm-30-156c-27 46-58 90-88 131h88v-131" id="cd"/><g id="ae"><use transform="matrix(0.055555555555555546,0,0,0.055555555555555546,0,0)" xlink:href="#cc"/><use transform="matrix(0.055555555555555546,0,0,0.055555555555555546,11.111111111111109,0)" xlink:href="#cd"/></g><path d="M54-142c48-35 137-8 131 61C196 18 31 33 14-55l32-4c7 23 22 37 52 37 35-1 51-22 54-58 4-55-73-65-99-34H22l8-134h141v27H59" id="ce"/><path d="M47-170H22l-4-78h33" id="cf"/><path d="M134-131c28 9 52 24 51 62-1 50-34 73-85 73S17-19 16-69c0-36 21-54 49-61-75-25-45-126 34-121 46 3 78 18 79 63 0 33-17 51-44 57zm-34-11c31 1 46-15 46-44 0-28-17-43-47-42-29 0-46 13-45 42 1 28 16 44 46 44zm1 122c35 0 51-18 51-52 0-30-18-46-53-46-33 0-51 17-51 47 0 34 19 51 53 51" id="cg"/><path d="M99-251c64 0 84 50 84 122C183-37 130 33 47-8c-14-7-20-23-25-40l30-5c6 39 69 39 84 7 9-19 16-44 16-74-10 22-31 35-62 35-49 0-73-33-73-83 0-54 28-83 82-83zm-1 141c31-1 51-18 51-49 0-36-14-67-51-67-34 0-49 23-49 58 0 34 15 58 49 58" id="ch"/><g id="af"><use transform="matrix(0.055555555555555546,0,0,0.055555555555555546,0,0)" xlink:href="#ce"/><use transform="matrix(0.055555555555555546,0,0,0.055555555555555546,11.111111111111109,0)" xlink:href="#cf"/><use transform="matrix(0.055555555555555546,0,0,0.055555555555555546,14.888888888888886,0)" xlink:href="#cd"/><use transform="matrix(0.055555555555555546,0,0,0.055555555555555546,25.999999999999993,0)" xlink:href="#cg"/><use transform="matrix(0.055555555555555546,0,0,0.055555555555555546,37.1111111111111,0)" xlink:href="#ch"/></g><path d="M27 0v-27h64v-190l-56 39v-29l58-41h29v221h61V0H27" id="ci"/><g id="ag"><use transform="matrix(0.055555555555555546,0,0,0.055555555555555546,0,0)" xlink:href="#cc"/><use transform="matrix(0.055555555555555546,0,0,0.055555555555555546,11.111111111111109,0)" xlink:href="#cf"/><use transform="matrix(0.055555555555555546,0,0,0.055555555555555546,14.888888888888886,0)" xlink:href="#ce"/><use transform="matrix(0.055555555555555546,0,0,0.055555555555555546,25.999999999999993,0)" xlink:href="#cd"/><use transform="matrix(0.055555555555555546,0,0,0.055555555555555546,37.1111111111111,0)" xlink:href="#cc"/><use transform="matrix(0.055555555555555546,0,0,0.055555555555555546,48.22222222222221,0)" xlink:href="#cf"/><use transform="matrix(0.055555555555555546,0,0,0.055555555555555546,51.999999999999986,0)" xlink:href="#ci"/><use transform="matrix(0.055555555555555546,0,0,0.055555555555555546,63.111111111111086,0)" xlink:href="#ch"/><use transform="matrix(0.055555555555555546,0,0,0.055555555555555546,74.2222222222222,0)" xlink:href="#cd"/></g><path d="M101-251c68 0 85 55 85 127S166 4 100 4C33 4 14-52 14-124c0-73 17-127 87-127zm-1 229c47 0 54-49 54-102s-4-102-53-102c-51 0-55 48-55 102 0 53 5 102 54 102" id="cj"/><path d="M64 0c3-98 48-159 88-221H18v-27h164v26C143-157 98-101 97 0H64" id="ck"/><g id="ah"><use transform="matrix(0.055555555555555546,0,0,0.055555555555555546,0,0)" xlink:href="#cd"/><use transform="matrix(0.055555555555555546,0,0,0.055555555555555546,11.111111111111109,0)" xlink:href="#ci"/><use transform="matrix(0.055555555555555546,0,0,0.055555555555555546,22.222222222222218,0)" xlink:href="#cf"/><use transform="matrix(0.055555555555555546,0,0,0.055555555555555546,25.999999999999996,0)" xlink:href="#ce"/><use transform="matrix(0.055555555555555546,0,0,0.055555555555555546,37.11111111111111,0)" xlink:href="#cj"/><use transform="matrix(0.055555555555555546,0,0,0.055555555555555546,48.222222222222214,0)" xlink:href="#ck"/></g><path d="M110-160c48 1 74 30 74 79 0 53-28 85-80 85-65 0-83-55-86-122-5-90 50-162 133-122 14 7 22 21 27 39l-31 6c-5-40-67-38-82-6-9 19-15 44-15 74 11-20 30-34 60-33zm-7 138c34 0 49-23 49-58s-16-56-50-56c-29 0-50 16-49 49 1 36 15 65 50 65" id="cl"/><g id="ai"><use transform="matrix(0.055555555555555546,0,0,0.055555555555555546,0,0)" xlink:href="#ci"/><use transform="matrix(0.055555555555555546,0,0,0.055555555555555546,11.111111111111109,0)" xlink:href="#ce"/><use transform="matrix(0.055555555555555546,0,0,0.055555555555555546,22.222222222222218,0)" xlink:href="#cf"/><use transform="matrix(0.055555555555555546,0,0,0.055555555555555546,25.999999999999996,0)" xlink:href="#cl"/><use transform="matrix(0.055555555555555546,0,0,0.055555555555555546,37.11111111111111,0)" xlink:href="#cd"/><use transform="matrix(0.055555555555555546,0,0,0.055555555555555546,48.222222222222214,0)" xlink:href="#ci"/><use transform="matrix(0.055555555555555546,0,0,0.055555555555555546,59.33333333333332,0)" xlink:href="#cf"/><use transform="matrix(0.055555555555555546,0,0,0.055555555555555546,63.1111111111111,0)" xlink:href="#ce"/><use transform="matrix(0.055555555555555546,0,0,0.055555555555555546,74.22222222222221,0)" xlink:href="#cd"/><use transform="matrix(0.055555555555555546,0,0,0.055555555555555546,85.33333333333333,0)" xlink:href="#cc"/></g><g id="ak"><use transform="matrix(0.053086419753086415,0,0,0.053086419753086415,0,0)" xlink:href="#cc"/><use transform="matrix(0.053086419753086415,0,0,0.053086419753086415,10.617283950617283,0)" xlink:href="#cj"/><use transform="matrix(0.053086419753086415,0,0,0.053086419753086415,21.234567901234566,0)" xlink:href="#cf"/><use transform="matrix(0.053086419753086415,0,0,0.053086419753086415,24.84444444444444,0)" xlink:href="#ch"/><use transform="matrix(0.053086419753086415,0,0,0.053086419753086415,35.461728395061726,0)" xlink:href="#cg"/><use transform="matrix(0.053086419753086415,0,0,0.053086419753086415,46.07901234567901,0)" xlink:href="#cl"/></g><g id="al"><use transform="matrix(0.055555555555555546,0,0,0.055555555555555546,0,0)" xlink:href="#cl"/><use transform="matrix(0.055555555555555546,0,0,0.055555555555555546,11.111111111111109,0)" xlink:href="#cj"/><use transform="matrix(0.055555555555555546,0,0,0.055555555555555546,22.222222222222218,0)" xlink:href="#ch"/></g><path d="M126-127c33 6 58 20 58 59 0 88-139 92-164 29-3-8-5-16-6-25l32-3c6 27 21 44 54 44 32 0 52-15 52-46 0-38-36-46-79-43v-28c39 1 72-4 72-42 0-27-17-43-46-43-28 0-47 15-49 41l-32-3c6-42 35-63 81-64 48-1 79 21 79 65 0 36-21 52-52 59" id="cm"/><g id="am"><use transform="matrix(0.055555555555555546,0,0,0.055555555555555546,0,0)" xlink:href="#ci"/><use transform="matrix(0.055555555555555546,0,0,0.055555555555555546,9.611111111111109,0)" xlink:href="#ci"/><use transform="matrix(0.055555555555555546,0,0,0.055555555555555546,20.722222222222218,0)" xlink:href="#cm"/></g></defs></g></svg>